<svg width="600" height="520" viewBox="0 0 600 520" fill="none" xmlns="http://www.w3.org/2000/svg">
<g opacity="0.8">
<path d="M308.571 175.547C366.348 175.547 413.186 139.263 413.186 94.5038C413.186 49.7451 366.348 13.4609 308.571 13.4609C250.794 13.4609 203.957 49.7451 203.957 94.5038C203.957 139.263 250.794 175.547 308.571 175.547Z" fill="url(#paint0_linear_978_12341)"/>
</g>
<path d="M308.571 15.2656C365.064 15.2656 410.864 50.7442 410.864 94.5085C410.864 138.273 365.064 173.751 308.571 173.751C252.079 173.751 206.279 138.273 206.279 94.5085C206.279 50.7442 252.076 15.2656 308.571 15.2656Z" fill="#475569"/>
<path opacity="0.54" d="M222.814 103.313C222.814 59.5489 268.607 24.0703 325.1 24.0703C342.639 23.9738 360.004 27.5581 376.071 34.5917C358.093 22.4489 334.571 15.0703 308.828 15.0703C252.336 15.0703 206.536 50.5489 206.536 94.3132C206.536 123.699 227.186 149.349 257.864 163.035C236.386 148.506 222.814 127.142 222.814 103.313Z" fill="#334155"/>
<path opacity="0.2" d="M308.571 126.359L421.971 322.774L535.372 519.181H81.7715L195.171 322.774L308.571 126.359Z" fill="#F1F5F9"/>
<g opacity="0.3">
<path d="M335.479 404.442L344.286 378.306C347.314 369.205 347.339 359.371 344.355 350.254C341.372 341.138 335.538 333.221 327.714 327.671L327.786 327.628C324.322 325.189 320.523 323.264 316.507 321.913L316.386 321.871L316.25 321.828C312.352 320.509 308.289 319.745 304.179 319.556C302.725 319.481 301.268 319.481 299.814 319.556C297.292 319.688 294.785 320.035 292.322 320.592C291.607 320.749 290.893 320.928 290.243 321.121C289.593 321.313 288.864 321.521 288.186 321.742C286.829 322.192 285.493 322.699 284.186 323.278C283.529 323.563 282.879 323.863 282.243 324.185C280.321 325.134 278.47 326.223 276.707 327.442C276.114 327.849 275.536 328.271 274.964 328.699C267.904 334.068 262.619 341.434 259.793 349.842L245.95 391.021C243.771 397.479 243.116 404.353 244.036 411.106C244.179 412.142 244.357 413.171 244.564 414.192C244.772 415.213 245.029 416.221 245.279 417.221C245.472 417.885 245.672 418.549 245.893 419.206C246.222 420.185 246.607 421.163 246.972 422.121C247.236 422.756 247.514 423.392 247.807 424.021C248.386 425.271 249.029 426.492 249.722 427.685C250.411 428.886 251.164 430.05 251.979 431.171C252.579 432.013 253.214 432.842 253.872 433.642C254.746 434.724 255.681 435.757 256.672 436.735C260.938 441.036 266.044 444.413 271.672 446.656L271.914 446.756C272.217 446.22 272.551 445.703 272.914 445.206C275.057 442.271 278.786 440.206 282.336 440.978C282.593 441.035 282.85 441.113 283.107 441.192C284.907 441.828 286.679 442.963 288.414 443.521C289.046 443.804 289.731 443.947 290.423 443.938C291.116 443.929 291.797 443.77 292.422 443.471C295.893 441.621 294.607 435.785 297.586 433.228C297.724 433.11 297.87 433 298.022 432.899C297.979 432.847 297.941 432.792 297.907 432.735C300.207 431.306 303.393 432.256 306.043 433.178C308.9 434.185 312.629 434.863 314.614 432.528C315.957 430.928 315.857 428.492 317.136 426.813C318.622 424.885 321.422 424.671 323.843 425.013L323.964 425.049C328.607 426.963 333.679 423.785 333.322 418.778C333.141 413.906 333.873 409.044 335.479 404.442Z" fill="#F1F5F9"/>
</g>
<path d="M273.721 443.006C275.807 440.149 279.386 438.149 282.814 438.928C286.243 439.706 289.493 442.971 292.543 441.335C296.714 439.106 293.757 430.913 300.528 430.306C301.94 430.213 303.352 430.458 304.65 431.021C307.507 432.185 311.978 433.499 314.178 430.878C315.471 429.335 315.378 426.985 316.614 425.385C318.043 423.528 320.764 423.292 323.086 423.649L323.2 423.685C327.678 425.535 332.578 422.463 332.228 417.635C331.778 411.206 333.821 405.149 334.264 403.835L342.75 378.613C346.359 367.801 345.542 356 340.476 345.789C335.409 335.578 326.507 327.787 315.714 324.121C304.903 320.516 293.104 321.337 282.896 326.404C272.688 331.471 264.901 340.373 261.236 351.163L247.857 390.828C244.38 401.259 245.018 412.625 249.641 422.602C254.263 432.58 262.522 440.415 272.728 444.506C273.03 443.987 273.361 443.486 273.721 443.006Z" fill="white"/>
<path opacity="0.2" d="M289.536 351.847C292.104 351.847 294.186 349.765 294.186 347.197C294.186 344.629 292.104 342.547 289.536 342.547C286.968 342.547 284.886 344.629 284.886 347.197C284.886 349.765 286.968 351.847 289.536 351.847Z" fill="#475569"/>
<path opacity="0.2" d="M315.979 360.745C318.547 360.745 320.629 358.663 320.629 356.095C320.629 353.527 318.547 351.445 315.979 351.445C313.41 351.445 311.329 353.527 311.329 356.095C311.329 358.663 313.41 360.745 315.979 360.745Z" fill="#475569"/>
<path d="M301.255 370.803C302.483 367.153 301.505 363.53 299.07 362.711C296.636 361.892 293.666 364.186 292.438 367.836C291.21 371.486 292.188 375.109 294.623 375.929C297.057 376.748 300.026 374.453 301.255 370.803Z" fill="#475569"/>
<path d="M394.664 355.201C398.515 355.201 401.636 352.079 401.636 348.229C401.636 344.379 398.515 341.258 394.664 341.258C390.814 341.258 387.693 344.379 387.693 348.229C387.693 352.079 390.814 355.201 394.664 355.201Z" fill="white"/>
<path d="M416.75 340.753C418.675 340.753 420.236 339.192 420.236 337.267C420.236 335.342 418.675 333.781 416.75 333.781C414.825 333.781 413.264 335.342 413.264 337.267C413.264 339.192 414.825 340.753 416.75 340.753Z" fill="white"/>
<path opacity="0.05" d="M326.429 41.7344C339.841 41.7344 350.714 39.4958 350.714 36.7344C350.714 33.973 339.841 31.7344 326.429 31.7344C313.016 31.7344 302.143 33.973 302.143 36.7344C302.143 39.4958 313.016 41.7344 326.429 41.7344Z" fill="black"/>
<path opacity="0.05" d="M280 63.1641C293.413 63.1641 304.286 60.9255 304.286 58.1641C304.286 55.4026 293.413 53.1641 280 53.1641C266.587 53.1641 255.714 55.4026 255.714 58.1641C255.714 60.9255 266.587 63.1641 280 63.1641Z" fill="black"/>
<path opacity="0.05" d="M369.286 72.4453C382.698 72.4453 393.571 70.2067 393.571 67.4453C393.571 64.6839 382.698 62.4453 369.286 62.4453C355.873 62.4453 345 64.6839 345 67.4453C345 70.2067 355.873 72.4453 369.286 72.4453Z" fill="black"/>
<g opacity="0.5">
<g opacity="0.3">
<path d="M344.764 123.731L353.572 97.5953C356.6 88.4936 356.624 78.6597 353.641 69.5431C350.657 60.4266 344.824 52.5097 337 46.9596L337.072 46.9168C333.607 44.4779 329.808 42.5532 325.793 41.2025L325.672 41.1596L325.536 41.1168C321.638 39.7985 317.575 39.0339 313.464 38.8453C312.011 38.7703 310.554 38.7703 309.1 38.8453C306.578 38.9774 304.071 39.3239 301.607 39.8811C300.893 40.0382 300.179 40.2168 299.529 40.4096C298.879 40.6025 298.15 40.8096 297.472 41.0311C296.114 41.4811 294.779 41.9882 293.471 42.5668C292.814 42.8525 292.164 43.1525 291.529 43.4739C289.606 44.423 287.756 45.5117 285.993 46.7311C285.4 47.1382 284.822 47.5596 284.25 47.9882C277.19 53.3574 271.904 60.7231 269.079 69.1311L255.236 110.31C253.057 116.768 252.402 123.642 253.322 130.395C253.464 131.431 253.643 132.46 253.85 133.481C254.057 134.502 254.314 135.51 254.564 136.51C254.757 137.174 254.957 137.838 255.179 138.495C255.507 139.474 255.893 140.452 256.257 141.41C256.522 142.045 256.8 142.681 257.093 143.31C257.671 144.56 258.314 145.781 259.007 146.974C259.697 148.175 260.45 149.339 261.264 150.46C261.864 151.302 262.5 152.131 263.157 152.931C264.043 154.003 264.972 155.038 265.957 156.024C270.224 160.325 275.329 163.702 280.957 165.945L281.2 166.045C281.502 165.509 281.836 164.992 282.2 164.495C284.343 161.56 288.072 159.495 291.622 160.267C291.879 160.324 292.136 160.402 292.393 160.481C294.193 161.117 295.964 162.252 297.7 162.81C298.331 163.093 299.017 163.236 299.709 163.227C300.401 163.219 301.083 163.059 301.707 162.76C305.179 160.91 303.893 155.074 306.871 152.517C307.01 152.399 307.156 152.289 307.307 152.188C307.265 152.136 307.227 152.081 307.193 152.024C309.493 150.595 312.679 151.545 315.329 152.467C318.186 153.474 321.914 154.152 323.9 151.817C325.243 150.217 325.143 147.781 326.421 146.102C327.907 144.174 330.707 143.96 333.129 144.302H333.25C337.893 146.217 342.964 143.038 342.607 138.031C342.186 131.388 344.286 125.095 344.764 123.731Z" fill="url(#paint1_linear_978_12341)"/>
</g>
<path d="M283.007 162.295C285.093 159.438 288.671 157.438 292.1 158.217C295.529 158.995 298.779 162.26 301.829 160.624C306 158.395 303.043 150.202 309.814 149.595C311.225 149.502 312.638 149.747 313.936 150.31C316.793 151.474 321.264 152.788 323.464 150.167C324.757 148.624 324.664 146.274 325.9 144.674C327.329 142.817 330.05 142.581 332.371 142.938L332.486 142.974C336.964 144.824 341.864 141.752 341.514 136.924C341.064 130.495 343.107 124.438 343.55 123.124L352.036 97.9025C355.645 87.0903 354.827 75.2889 349.761 65.0778C344.695 54.8667 335.793 47.0764 325 43.4096C314.189 39.8049 302.39 40.6258 292.182 45.693C281.974 50.7602 274.187 59.6616 270.521 70.4525L257.143 110.117C253.666 120.549 254.304 131.914 258.927 141.892C263.549 151.869 271.808 159.704 282.014 163.795C282.316 163.276 282.647 162.775 283.007 162.295Z" fill="#F1F5F9"/>
<path opacity="0.2" d="M298.822 71.1359C301.39 71.1359 303.472 69.0541 303.472 66.4859C303.472 63.9178 301.39 61.8359 298.822 61.8359C296.254 61.8359 294.172 63.9178 294.172 66.4859C294.172 69.0541 296.254 71.1359 298.822 71.1359Z" fill="black"/>
<path opacity="0.2" d="M325.264 80.0344C327.832 80.0344 329.914 77.9525 329.914 75.3844C329.914 72.8163 327.832 70.7344 325.264 70.7344C322.696 70.7344 320.614 72.8163 320.614 75.3844C320.614 77.9525 322.696 80.0344 325.264 80.0344Z" fill="black"/>
</g>
<path opacity="0.1" d="M406.8 71.0234C408.128 76.1558 408.798 81.4363 408.793 86.7377C408.793 130.502 363 165.981 306.507 165.981C260.272 165.952 221.207 142.195 208.572 109.595C217.957 145.859 259.286 173.166 308.864 173.166C365.357 173.166 411.157 137.688 411.157 93.9234C411.143 86.0855 409.665 78.3191 406.8 71.0234Z" fill="black"/>
<g opacity="0.8">
<path d="M308.572 184.351C425.411 184.351 520.129 159.596 520.129 129.058C520.129 98.5211 425.411 73.7656 308.572 73.7656C191.732 73.7656 97.0144 98.5211 97.0144 129.058C97.0144 159.596 191.732 184.351 308.572 184.351Z" fill="#CBD5E1"/>
</g>
<path d="M308.571 75.5938C195.586 75.5938 103.986 99.5295 103.986 129.065H513.157C513.157 99.5295 421.557 75.5938 308.571 75.5938Z" fill="#F1F5F9"/>
<path d="M308.571 182.527C421.557 182.527 513.157 158.591 513.157 129.062H103.986C103.986 158.591 195.586 182.527 308.571 182.527Z" fill="white"/>
<path d="M308.571 182.527C421.557 182.527 513.157 158.591 513.157 129.062H103.986C103.986 158.591 195.586 182.527 308.571 182.527Z" fill="#F1F5F9"/>
<path opacity="0.05" d="M393.914 115.109H223.228C216.435 115.109 210.928 120.616 210.928 127.409V130.709C210.928 137.502 216.435 143.009 223.228 143.009H393.914C400.707 143.009 406.214 137.502 406.214 130.709V127.409C406.214 120.616 400.707 115.109 393.914 115.109Z" fill="#475569"/>
<path opacity="0.5" d="M95.6356 41.2928C95.0455 41.0353 94.5704 40.5701 94.3005 39.9855C94.0306 39.401 93.9846 38.7376 94.1713 38.1214C94.2013 38.0263 94.2205 37.928 94.2285 37.8286C94.2467 37.5459 94.1731 37.2649 94.0187 37.0274C93.8642 36.79 93.6372 36.6088 93.3714 36.5108C93.1056 36.4128 92.8153 36.4033 92.5437 36.4838C92.2721 36.5642 92.0337 36.7302 91.8642 36.9571C91.807 37.0372 91.7591 37.1234 91.7213 37.2143C91.465 37.8054 91 38.2815 90.415 38.5516C89.83 38.8217 89.1661 38.8669 88.5499 38.6786C88.4545 38.6493 88.3564 38.6302 88.257 38.6214C87.9743 38.6032 87.6934 38.6768 87.4559 38.8312C87.2184 38.9856 87.0372 39.2127 86.9393 39.4784C86.8413 39.7442 86.8318 40.0346 86.9122 40.3062C86.9927 40.5778 87.1587 40.8161 87.3856 40.9857C87.4645 41.0466 87.5509 41.097 87.6428 41.1357C88.2329 41.3932 88.708 41.8584 88.9779 42.443C89.2478 43.0276 89.2937 43.6909 89.107 44.3071C89.0777 44.4 89.0586 44.4958 89.0499 44.5928C89.0299 44.8762 89.1022 45.1583 89.2561 45.3971C89.4099 45.6358 89.6369 45.8183 89.9031 45.9173C90.1693 46.0162 90.4604 46.0262 90.7329 45.9458C91.0053 45.8655 91.2443 45.699 91.4142 45.4714C91.4729 45.3898 91.5209 45.301 91.557 45.2071C91.8196 44.6225 92.2873 44.1543 92.8717 43.8911C93.456 43.6278 94.1166 43.5878 94.7285 43.7786C94.8238 43.8078 94.922 43.8269 95.0213 43.8357C95.304 43.8539 95.585 43.7804 95.8224 43.6259C96.0599 43.4715 96.2411 43.2445 96.3391 42.9787C96.437 42.7129 96.4465 42.4226 96.3661 42.151C96.2857 41.8794 96.1196 41.641 95.8927 41.4714C95.8155 41.4005 95.729 41.3405 95.6356 41.2928Z" fill="white"/>
<path opacity="0.5" d="M459.207 259.863C458.623 259.599 458.156 259.131 457.893 258.548C457.63 257.964 457.589 257.304 457.779 256.692C457.809 256.597 457.828 256.498 457.836 256.399C457.854 256.116 457.78 255.835 457.626 255.598C457.471 255.36 457.244 255.179 456.979 255.081C456.713 254.983 456.422 254.974 456.151 255.054C455.879 255.135 455.641 255.301 455.471 255.527C455.414 255.607 455.366 255.694 455.329 255.785C455.072 256.376 454.607 256.852 454.022 257.122C453.437 257.392 452.773 257.437 452.157 257.249C452.062 257.22 451.964 257.201 451.864 257.192C451.582 257.174 451.301 257.247 451.063 257.402C450.826 257.556 450.644 257.783 450.546 258.049C450.448 258.315 450.439 258.605 450.519 258.876C450.6 259.148 450.766 259.386 450.993 259.556C451.072 259.617 451.158 259.667 451.25 259.706C451.834 259.97 452.301 260.438 452.564 261.022C452.827 261.606 452.868 262.266 452.678 262.877C452.649 262.97 452.63 263.066 452.621 263.163C452.601 263.446 452.674 263.729 452.828 263.967C452.981 264.206 453.208 264.389 453.475 264.488C453.741 264.587 454.032 264.597 454.304 264.516C454.577 264.436 454.816 264.269 454.986 264.042C455.044 263.96 455.092 263.871 455.128 263.777C455.391 263.193 455.859 262.725 456.443 262.461C457.028 262.198 457.688 262.158 458.3 262.349C458.395 262.378 458.493 262.397 458.593 262.406C458.875 262.424 459.156 262.351 459.394 262.196C459.631 262.042 459.813 261.815 459.911 261.549C460.009 261.283 460.018 260.993 459.938 260.721C459.857 260.45 459.691 260.211 459.464 260.042C459.387 259.971 459.3 259.911 459.207 259.863Z" fill="white"/>
<path opacity="0.5" d="M57.7787 361.293C57.1885 361.035 56.7134 360.57 56.4435 359.986C56.1736 359.401 56.1277 358.738 56.3144 358.121C56.3444 358.026 56.3635 357.928 56.3715 357.829C56.3898 357.546 56.3162 357.265 56.1617 357.027C56.0073 356.79 55.7803 356.609 55.5145 356.511C55.2487 356.413 54.9584 356.403 54.6868 356.484C54.4152 356.564 54.1768 356.73 54.0072 356.957C53.95 357.037 53.9021 357.123 53.8644 357.214C53.6081 357.805 53.1431 358.282 52.5581 358.552C51.9731 358.822 51.3091 358.867 50.693 358.679C50.5976 358.649 50.4994 358.63 50.4001 358.621C50.1174 358.603 49.8364 358.677 49.599 358.831C49.3615 358.986 49.1803 359.213 49.0823 359.478C48.9844 359.744 48.9749 360.035 49.0553 360.306C49.1357 360.578 49.3018 360.816 49.5287 360.986C49.6076 361.047 49.694 361.097 49.7858 361.136C50.3759 361.393 50.851 361.858 51.121 362.443C51.3909 363.028 51.4368 363.691 51.2501 364.307C51.2208 364.4 51.2016 364.496 51.193 364.593C51.173 364.876 51.2453 365.158 51.3991 365.397C51.5529 365.636 51.78 365.818 52.0462 365.917C52.3124 366.016 52.6035 366.026 52.8759 365.946C53.1483 365.865 53.3874 365.699 53.5572 365.471C53.616 365.39 53.664 365.301 53.7001 365.207C53.9627 364.622 54.4304 364.154 55.0147 363.891C55.5991 363.628 56.2596 363.588 56.8715 363.779C56.9669 363.808 57.065 363.827 57.1644 363.836C57.4471 363.854 57.728 363.78 57.9655 363.626C58.203 363.471 58.3842 363.244 58.4822 362.979C58.5801 362.713 58.5896 362.423 58.5092 362.151C58.4287 361.879 58.2627 361.641 58.0358 361.471C57.9586 361.401 57.8721 361.34 57.7787 361.293Z" fill="white"/>
<path opacity="0.5" d="M18.493 124.863C17.9093 124.599 17.4421 124.131 17.1791 123.548C16.916 122.964 16.8752 122.304 17.0644 121.692C17.0944 121.597 17.1135 121.498 17.1215 121.399C17.1398 121.116 17.0662 120.835 16.9117 120.598C16.7573 120.36 16.5303 120.179 16.2645 120.081C15.9987 119.983 15.7084 119.974 15.4368 120.054C15.1652 120.135 14.9268 120.301 14.7572 120.527C14.7 120.607 14.6521 120.694 14.6144 120.785C14.3581 121.376 13.8931 121.852 13.3081 122.122C12.7231 122.392 12.0591 122.437 11.443 122.249C11.3476 122.22 11.2494 122.201 11.1501 122.192C10.8674 122.174 10.5864 122.247 10.349 122.402C10.1115 122.556 9.93028 122.783 9.83232 123.049C9.73435 123.315 9.72489 123.605 9.80532 123.876C9.88575 124.148 10.0518 124.386 10.2787 124.556C10.3576 124.617 10.444 124.667 10.5358 124.706C11.126 124.964 11.601 125.429 11.871 126.013C12.1409 126.598 12.1868 127.261 12.0001 127.877C11.9708 127.97 11.9516 128.066 11.943 128.163C11.923 128.446 11.9953 128.729 12.1491 128.967C12.3029 129.206 12.53 129.389 12.7962 129.488C13.0624 129.587 13.3535 129.597 13.6259 129.516C13.8983 129.436 14.1374 129.269 14.3072 129.042C14.3659 128.96 14.4139 128.871 14.4501 128.777C14.7127 128.193 15.1804 127.725 15.7647 127.461C16.3491 127.198 17.0097 127.158 17.6215 127.349C17.7169 127.378 17.815 127.397 17.9144 127.406C18.1971 127.424 18.4781 127.351 18.7155 127.196C18.953 127.042 19.1342 126.815 19.2322 126.549C19.3301 126.283 19.3396 125.993 19.2592 125.721C19.1787 125.45 19.0127 125.211 18.7858 125.042C18.6976 124.968 18.5989 124.908 18.493 124.863Z" fill="white"/>
<path opacity="0.5" d="M452.064 4.86316C451.481 4.59933 451.013 4.1315 450.75 3.54753C450.487 2.96356 450.446 2.30365 450.636 1.69173C450.666 1.59657 450.685 1.49833 450.693 1.39887C450.711 1.1162 450.637 0.835195 450.483 0.597733C450.329 0.360272 450.101 0.179061 449.836 0.081098C449.57 -0.016865 449.28 -0.0263357 449.008 0.0540954C448.736 0.134527 448.498 0.300554 448.328 0.527445C448.271 0.607472 448.223 0.69374 448.186 0.784588C447.923 1.36923 447.455 1.83742 446.871 2.10064C446.287 2.36387 445.626 2.4039 445.014 2.21316C444.919 2.18394 444.821 2.16479 444.721 2.15602C444.413 2.09143 444.093 2.13943 443.817 2.29128C443.542 2.44314 443.33 2.68879 443.22 2.9836C443.11 3.27841 443.11 3.60283 443.219 3.89792C443.328 4.193 443.539 4.43918 443.814 4.59173C443.893 4.65261 443.98 4.70303 444.071 4.74173C444.655 5.00556 445.122 5.47339 445.385 6.05736C445.648 6.64133 445.689 7.30125 445.5 7.91316C445.471 8.00605 445.451 8.10185 445.443 8.19888C445.413 8.493 445.482 8.78871 445.641 9.03823C445.8 9.28774 446.038 9.47647 446.317 9.57392C446.596 9.67138 446.9 9.67186 447.179 9.57529C447.459 9.47872 447.698 9.29074 447.857 9.04173C447.916 8.96009 447.964 8.87128 448 8.77745C448.263 8.1928 448.73 7.72462 449.315 7.46139C449.899 7.19817 450.559 7.15814 451.171 7.34888C451.267 7.37809 451.365 7.39725 451.464 7.40602C451.747 7.42425 452.028 7.35066 452.265 7.19623C452.503 7.04179 452.684 6.81477 452.782 6.54899C452.88 6.2832 452.889 5.99288 452.809 5.72127C452.729 5.44967 452.563 5.21132 452.336 5.04173C452.254 4.96976 452.163 4.90965 452.064 4.86316Z" fill="white"/>
<g opacity="0.5">
<path d="M80.7144 184.18H78.5715V196.323H80.7144V184.18Z" fill="white"/>
<path d="M85.7144 191.323V189.18H73.5715V191.323H85.7144Z" fill="white"/>
</g>
<g opacity="0.5">
<path d="M595 127.031H592.857V139.174H595V127.031Z" fill="white"/>
<path d="M600 134.174V132.031H587.857V134.174H600Z" fill="white"/>
</g>
<g opacity="0.5">
<path d="M523.572 326.32H521.429V338.463H523.572V326.32Z" fill="white"/>
<path d="M528.572 333.463V331.32H516.429V333.463H528.572Z" fill="white"/>
</g>
<path opacity="0.5" d="M516.429 62.7511C518.795 62.7511 520.714 60.8323 520.714 58.4654C520.714 56.0985 518.795 54.1797 516.429 54.1797C514.062 54.1797 512.143 56.0985 512.143 58.4654C512.143 60.8323 514.062 62.7511 516.429 62.7511Z" fill="white"/>
<path opacity="0.5" d="M4.28571 13.4621C6.65265 13.4621 8.57143 11.5433 8.57143 9.17634C8.57143 6.8094 6.65265 4.89062 4.28571 4.89062C1.91878 4.89062 0 6.8094 0 9.17634C0 11.5433 1.91878 13.4621 4.28571 13.4621Z" fill="white"/>
<path opacity="0.5" d="M132.857 259.892C135.224 259.892 137.143 257.973 137.143 255.606C137.143 253.239 135.224 251.32 132.857 251.32C130.49 251.32 128.572 253.239 128.572 255.606C128.572 257.973 130.49 259.892 132.857 259.892Z" fill="white"/>
<path opacity="0.05" d="M167.143 115.305C180.556 115.305 191.429 113.066 191.429 110.305C191.429 107.543 180.556 105.305 167.143 105.305C153.73 105.305 142.857 107.543 142.857 110.305C142.857 113.066 153.73 115.305 167.143 115.305Z" fill="#475569"/>
<path opacity="0.05" d="M167.143 153.164C180.556 153.164 191.429 150.925 191.429 148.164C191.429 145.403 180.556 143.164 167.143 143.164C153.73 143.164 142.857 145.403 142.857 148.164C142.857 150.925 153.73 153.164 167.143 153.164Z" fill="#475569"/>
<path opacity="0.05" d="M443.571 115.305C456.984 115.305 467.857 113.066 467.857 110.305C467.857 107.543 456.984 105.305 443.571 105.305C430.159 105.305 419.286 107.543 419.286 110.305C419.286 113.066 430.159 115.305 443.571 115.305Z" fill="#475569"/>
<path opacity="0.05" d="M443.571 153.164C456.984 153.164 467.857 150.925 467.857 148.164C467.857 145.403 456.984 143.164 443.571 143.164C430.159 143.164 419.286 145.403 419.286 148.164C419.286 150.925 430.159 153.164 443.571 153.164Z" fill="#475569"/>
<path opacity="0.05" d="M308.571 93.875C321.984 93.875 332.857 91.6364 332.857 88.875C332.857 86.1136 321.984 83.875 308.571 83.875C295.159 83.875 284.286 86.1136 284.286 88.875C284.286 91.6364 295.159 93.875 308.571 93.875Z" fill="#475569"/>
<path opacity="0.05" d="M308.571 168.164C321.984 168.164 332.857 165.925 332.857 163.164C332.857 160.403 321.984 158.164 308.571 158.164C295.159 158.164 284.286 160.403 284.286 163.164C284.286 165.925 295.159 168.164 308.571 168.164Z" fill="#475569"/>
<defs>
<linearGradient id="paint0_linear_978_12341" x1="308.571" y1="175.547" x2="308.571" y2="13.4609" gradientUnits="userSpaceOnUse">
<stop stop-color="#808080" stop-opacity="0.251"/>
<stop offset="0.54" stop-color="#808080" stop-opacity="0.122"/>
<stop offset="1" stop-color="#808080" stop-opacity="0.102"/>
</linearGradient>
<linearGradient id="paint1_linear_978_12341" x1="110.238" y1="1037.75" x2="110.238" y2="905.277" gradientUnits="userSpaceOnUse">
<stop stop-color="#808080" stop-opacity="0.251"/>
<stop offset="0.54" stop-color="#808080" stop-opacity="0.122"/>
<stop offset="1" stop-color="#808080" stop-opacity="0.102"/>
</linearGradient>
</defs>
</svg>
