<svg width="500" height="540" viewBox="0 0 500 540" fill="none" xmlns="http://www.w3.org/2000/svg">
<g clip-path="url(#clip0_978_12406)">
<path d="M446.269 84.5468L477.35 84.5469L477.35 71.4106L446.269 71.4105L446.269 84.5468Z" stroke="#EBEBEB" stroke-width="0.75" stroke-miterlimit="10"/>
<path d="M463.678 67.9844H494.76V54.8481H463.678V67.9844Z" stroke="#EBEBEB" stroke-width="0.75" stroke-miterlimit="10"/>
<path d="M250.03 213.617H281.111V200.481H250.03V213.617Z" stroke="#EBEBEB" stroke-width="0.75" stroke-miterlimit="10"/>
<path d="M267.322 197.055H298.404V183.918H267.322V197.055Z" stroke="#EBEBEB" stroke-width="0.75" stroke-miterlimit="10"/>
<path d="M284.596 213.617H315.677V200.481H284.596V213.617Z" stroke="#EBEBEB" stroke-width="0.75" stroke-miterlimit="10"/>
<path d="M5.22878 67.9844H36.3102V54.8481H5.22878V67.9844Z" stroke="#EBEBEB" stroke-width="0.75" stroke-miterlimit="10"/>
<path d="M22.521 376.602H53.6024V363.465H22.521V376.602Z" stroke="#EBEBEB" stroke-width="0.75" stroke-miterlimit="10"/>
<path d="M5.22878 360.039H36.3102V346.903H5.22878V360.039Z" stroke="#EBEBEB" stroke-width="0.75" stroke-miterlimit="10"/>
<path d="M446.269 376.601L477.35 376.602L477.35 363.465L446.269 363.465L446.269 376.601Z" stroke="#EBEBEB" stroke-width="0.75" stroke-miterlimit="10"/>
<path d="M201.736 494.373V347.059L233.052 304.249V224.141" stroke="#EBEBEB" stroke-miterlimit="10"/>
<path d="M230.237 221.323C230.237 222.847 231.527 224.138 233.052 224.138C234.577 224.138 235.867 222.847 235.867 221.323C235.867 219.798 234.577 218.508 233.052 218.508C231.527 218.625 230.237 219.798 230.237 221.323Z" stroke="#EBEBEB" stroke-miterlimit="10"/>
<path d="M209.829 494.371V352.218L241.145 309.407V253.461" stroke="#EBEBEB" stroke-miterlimit="10"/>
<path d="M238.33 250.643C238.33 252.168 239.62 253.458 241.145 253.458C242.669 253.458 243.96 252.168 243.96 250.643C243.96 249.118 242.669 247.828 241.145 247.828C239.62 247.828 238.33 249.118 238.33 250.643Z" stroke="#EBEBEB" stroke-miterlimit="10"/>
<path d="M193.878 494.371V299.203" stroke="#EBEBEB" stroke-miterlimit="10"/>
<path d="M191.18 296.502C191.18 298.027 192.47 299.317 193.995 299.317C195.52 299.317 196.81 298.027 196.81 296.502C196.81 294.978 195.52 293.688 193.995 293.688C192.353 293.688 191.18 294.86 191.18 296.502Z" stroke="#EBEBEB" stroke-miterlimit="10"/>
<path d="M186.488 494.369V395.26L165.142 355.031V283.133" stroke="#EBEBEB" stroke-miterlimit="10"/>
<path d="M162.327 280.315C162.327 281.84 163.617 283.13 165.142 283.13C166.667 283.13 167.957 281.84 167.957 280.315C167.957 278.79 166.667 277.5 165.142 277.5C163.617 277.5 162.327 278.79 162.327 280.315Z" stroke="#EBEBEB" stroke-miterlimit="10"/>
<path d="M178.982 494.371V399.485L153.882 355.15V307.766" stroke="#EBEBEB" stroke-miterlimit="10"/>
<path d="M151.067 304.948C151.067 306.472 152.357 307.763 153.882 307.763C155.407 307.763 156.697 306.472 156.697 304.948C156.697 303.423 155.407 302.133 153.882 302.133C152.357 302.133 151.067 303.423 151.067 304.948Z" stroke="#EBEBEB" stroke-miterlimit="10"/>
<path d="M172.296 539.995C241.219 539.995 297.091 531.068 297.091 520.056C297.091 509.044 241.219 500.117 172.296 500.117C103.374 500.117 47.5017 509.044 47.5017 520.056C47.5017 531.068 103.374 539.995 172.296 539.995Z" fill="#7170B1"/>
<path d="M346.587 206.898H270.349V494.489H346.587V206.898Z" fill="#4C4D6C"/>
<path d="M486.981 206.898H346.587V494.489H486.981V206.898Z" fill="#58597E"/>
<path d="M478.184 457.188H357.143V485.102H478.184V457.188Z" fill="#000501" fill-opacity="0.4"/>
<path d="M431.152 461.766H362.304V464.111H431.152V461.766Z" fill="#000501" fill-opacity="0.3"/>
<path d="M431.152 465.867H362.304V468.213H431.152V465.867Z" fill="#000501" fill-opacity="0.3"/>
<path d="M431.152 469.977H362.304V472.322H431.152V469.977Z" fill="#000501" fill-opacity="0.3"/>
<path d="M431.152 474.078H362.304V476.424H431.152V474.078Z" fill="#000501" fill-opacity="0.3"/>
<path d="M431.152 478.188H362.304V480.533H431.152V478.188Z" fill="#000501" fill-opacity="0.3"/>
<path d="M443.702 464.111C443.702 465.402 442.646 466.457 441.356 466.457C440.066 466.457 439.01 465.402 439.01 464.111C439.01 462.821 440.066 461.766 441.356 461.766C442.646 461.766 443.702 462.821 443.702 464.111Z" fill="#FF3C3C"/>
<path d="M451.443 464.111C451.443 465.402 450.387 466.457 449.097 466.457C447.807 466.457 446.751 465.402 446.751 464.111C446.751 462.821 447.807 461.766 449.097 461.766C450.387 461.766 451.443 462.821 451.443 464.111Z" fill="#FF3C3C"/>
<path d="M459.184 464.111C459.184 465.402 458.128 466.457 456.838 466.457C455.548 466.457 454.492 465.402 454.492 464.111C454.492 462.821 455.548 461.766 456.838 461.766C458.128 461.766 459.184 462.821 459.184 464.111Z" fill="#FF3C3C"/>
<path d="M466.925 464.111C466.925 465.402 465.869 466.457 464.579 466.457C463.289 466.457 462.233 465.402 462.233 464.111C462.233 462.821 463.289 461.766 464.579 461.766C465.869 461.766 466.925 462.821 466.925 464.111Z" fill="#FF3C3C"/>
<path d="M474.548 464.111C474.548 465.402 473.493 466.457 472.203 466.457C470.912 466.457 469.857 465.402 469.857 464.111C469.857 462.821 470.912 461.766 472.203 461.766C473.493 461.766 474.548 462.821 474.548 464.111Z" fill="#FF3C3C"/>
<path d="M443.702 471.15C443.702 472.441 442.646 473.496 441.356 473.496C440.066 473.496 439.01 472.441 439.01 471.15C439.01 469.86 440.066 468.805 441.356 468.805C442.646 468.805 443.702 469.86 443.702 471.15Z" fill="#FF3C3C"/>
<path d="M451.443 471.15C451.443 472.441 450.387 473.496 449.097 473.496C447.807 473.496 446.751 472.441 446.751 471.15C446.751 469.86 447.807 468.805 449.097 468.805C450.387 468.805 451.443 469.86 451.443 471.15Z" fill="#FF3C3C"/>
<path d="M459.184 471.15C459.184 472.441 458.128 473.496 456.838 473.496C455.548 473.496 454.492 472.441 454.492 471.15C454.492 469.86 455.548 468.805 456.838 468.805C458.128 468.805 459.184 469.86 459.184 471.15Z" fill="#FF3C3C"/>
<path d="M466.925 471.15C466.925 472.441 465.869 473.496 464.579 473.496C463.289 473.496 462.233 472.441 462.233 471.15C462.233 469.86 463.289 468.805 464.579 468.805C465.869 468.805 466.925 469.86 466.925 471.15Z" fill="#FF3C3C"/>
<path d="M474.548 471.15C474.548 472.441 473.493 473.496 472.203 473.496C470.912 473.496 469.857 472.441 469.857 471.15C469.857 469.86 470.912 468.805 472.203 468.805C473.493 468.805 474.548 469.86 474.548 471.15Z" fill="#FF3C3C"/>
<path d="M441.356 480.535C442.651 480.535 443.702 479.485 443.702 478.19C443.702 476.894 442.651 475.844 441.356 475.844C440.06 475.844 439.01 476.894 439.01 478.19C439.01 479.485 440.06 480.535 441.356 480.535Z" fill="#FF3C3C"/>
<path d="M451.443 478.19C451.443 479.48 450.387 480.535 449.097 480.535C447.807 480.535 446.751 479.48 446.751 478.19C446.751 476.899 447.807 475.844 449.097 475.844C450.387 475.844 451.443 476.899 451.443 478.19Z" fill="#FF3C3C"/>
<path d="M456.838 480.535C458.133 480.535 459.184 479.485 459.184 478.19C459.184 476.894 458.133 475.844 456.838 475.844C455.542 475.844 454.492 476.894 454.492 478.19C454.492 479.485 455.542 480.535 456.838 480.535Z" fill="#FF3C3C"/>
<path d="M466.925 478.19C466.925 479.48 465.869 480.535 464.579 480.535C463.289 480.535 462.233 479.48 462.233 478.19C462.233 476.899 463.289 475.844 464.579 475.844C465.869 475.844 466.925 476.899 466.925 478.19Z" fill="#FF3C3C"/>
<path d="M474.548 478.19C474.548 479.48 473.493 480.535 472.203 480.535C470.912 480.535 469.857 479.48 469.857 478.19C469.857 476.899 470.912 475.844 472.203 475.844C473.493 475.844 474.548 476.899 474.548 478.19Z" fill="#FF3C3C"/>
<path d="M435.843 461.766H434.553V480.532H435.843V461.766Z" fill="#000501" fill-opacity="0.5"/>
<path d="M478.184 423.531H357.143V451.446H478.184V423.531Z" fill="#000501" fill-opacity="0.4"/>
<path d="M431.152 428.109H362.304V430.455H431.152V428.109Z" fill="#000501" fill-opacity="0.3"/>
<path d="M431.152 432.211H362.304V434.557H431.152V432.211Z" fill="#000501" fill-opacity="0.3"/>
<path d="M431.152 436.32H362.304V438.666H431.152V436.32Z" fill="#000501" fill-opacity="0.3"/>
<path d="M431.152 440.422H362.304V442.768H431.152V440.422Z" fill="#000501" fill-opacity="0.3"/>
<path d="M431.152 444.531H362.304V446.877H431.152V444.531Z" fill="#000501" fill-opacity="0.3"/>
<path d="M443.702 430.455C443.702 431.745 442.646 432.801 441.356 432.801C440.066 432.801 439.01 431.745 439.01 430.455C439.01 429.165 440.066 428.109 441.356 428.109C442.646 428.109 443.702 429.165 443.702 430.455Z" fill="#FF3C3C"/>
<path d="M451.443 430.455C451.443 431.745 450.387 432.801 449.097 432.801C447.807 432.801 446.751 431.745 446.751 430.455C446.751 429.165 447.807 428.109 449.097 428.109C450.387 428.109 451.443 429.165 451.443 430.455Z" fill="#FF3C3C"/>
<path d="M459.184 430.455C459.184 431.745 458.128 432.801 456.838 432.801C455.548 432.801 454.492 431.745 454.492 430.455C454.492 429.165 455.548 428.109 456.838 428.109C458.128 428.109 459.184 429.165 459.184 430.455Z" fill="#FF3C3C"/>
<path d="M466.925 430.455C466.925 431.745 465.869 432.801 464.579 432.801C463.289 432.801 462.233 431.745 462.233 430.455C462.233 429.165 463.289 428.109 464.579 428.109C465.869 428.109 466.925 429.165 466.925 430.455Z" fill="#FF3C3C"/>
<path d="M474.548 430.455C474.548 431.745 473.493 432.801 472.203 432.801C470.912 432.801 469.857 431.745 469.857 430.455C469.857 429.165 470.912 428.109 472.203 428.109C473.493 428.109 474.548 429.165 474.548 430.455Z" fill="#FF3C3C"/>
<path d="M443.702 437.494C443.702 438.784 442.646 439.84 441.356 439.84C440.066 439.84 439.01 438.784 439.01 437.494C439.01 436.204 440.066 435.148 441.356 435.148C442.646 435.148 443.702 436.204 443.702 437.494Z" fill="#FF3C3C"/>
<path d="M451.443 437.494C451.443 438.784 450.387 439.84 449.097 439.84C447.807 439.84 446.751 438.784 446.751 437.494C446.751 436.204 447.807 435.148 449.097 435.148C450.387 435.148 451.443 436.204 451.443 437.494Z" fill="#FF3C3C"/>
<path d="M459.184 437.494C459.184 438.784 458.128 439.84 456.838 439.84C455.548 439.84 454.492 438.784 454.492 437.494C454.492 436.204 455.548 435.148 456.838 435.148C458.128 435.148 459.184 436.204 459.184 437.494Z" fill="#FF3C3C"/>
<path d="M466.925 437.494C466.925 438.784 465.869 439.84 464.579 439.84C463.289 439.84 462.233 438.784 462.233 437.494C462.233 436.204 463.289 435.148 464.579 435.148C465.869 435.148 466.925 436.204 466.925 437.494Z" fill="#FF3C3C"/>
<path d="M474.548 437.494C474.548 438.784 473.493 439.84 472.203 439.84C470.912 439.84 469.857 438.784 469.857 437.494C469.857 436.204 470.912 435.148 472.203 435.148C473.493 435.148 474.548 436.204 474.548 437.494Z" fill="#FF3C3C"/>
<path d="M443.702 444.533C443.702 445.823 442.646 446.879 441.356 446.879C440.066 446.879 439.01 445.823 439.01 444.533C439.01 443.243 440.066 442.188 441.356 442.188C442.646 442.188 443.702 443.243 443.702 444.533Z" fill="#FF3C3C"/>
<path d="M451.443 444.533C451.443 445.823 450.387 446.879 449.097 446.879C447.807 446.879 446.751 445.823 446.751 444.533C446.751 443.243 447.807 442.188 449.097 442.188C450.387 442.188 451.443 443.243 451.443 444.533Z" fill="#FF3C3C"/>
<path d="M459.184 444.533C459.184 445.823 458.128 446.879 456.838 446.879C455.548 446.879 454.492 445.823 454.492 444.533C454.492 443.243 455.548 442.188 456.838 442.188C458.128 442.188 459.184 443.243 459.184 444.533Z" fill="#FF3C3C"/>
<path d="M466.925 444.533C466.925 445.823 465.869 446.879 464.579 446.879C463.289 446.879 462.233 445.823 462.233 444.533C462.233 443.243 463.289 442.188 464.579 442.188C465.869 442.188 466.925 443.243 466.925 444.533Z" fill="#FF3C3C"/>
<path d="M474.548 444.533C474.548 445.823 473.493 446.879 472.203 446.879C470.912 446.879 469.857 445.823 469.857 444.533C469.857 443.243 470.912 442.188 472.203 442.188C473.493 442.188 474.548 443.243 474.548 444.533Z" fill="#FF3C3C"/>
<path d="M435.843 428.109H434.553V446.876H435.843V428.109Z" fill="#000501" fill-opacity="0.5"/>
<path d="M478.184 389.75H357.143V417.665H478.184V389.75Z" fill="#000501" fill-opacity="0.4"/>
<path d="M431.152 394.445H362.304V396.791H431.152V394.445Z" fill="#000501" fill-opacity="0.3"/>
<path d="M431.152 398.547H362.304V400.893H431.152V398.547Z" fill="#000501" fill-opacity="0.3"/>
<path d="M431.152 402.656H362.304V405.002H431.152V402.656Z" fill="#000501" fill-opacity="0.3"/>
<path d="M431.152 406.641H362.304V408.986H431.152V406.641Z" fill="#000501" fill-opacity="0.3"/>
<path d="M431.152 410.75H362.304V413.096H431.152V410.75Z" fill="#000501" fill-opacity="0.3"/>
<path d="M441.356 399.137C442.651 399.137 443.702 398.087 443.702 396.791C443.702 395.496 442.651 394.445 441.356 394.445C440.06 394.445 439.01 395.496 439.01 396.791C439.01 398.087 440.06 399.137 441.356 399.137Z" fill="#FF3C3C"/>
<path d="M451.443 396.791C451.443 398.081 450.387 399.137 449.097 399.137C447.807 399.137 446.751 398.081 446.751 396.791C446.751 395.501 447.807 394.445 449.097 394.445C450.387 394.445 451.443 395.501 451.443 396.791Z" fill="#FF3C3C"/>
<path d="M456.838 399.137C458.133 399.137 459.184 398.087 459.184 396.791C459.184 395.496 458.133 394.445 456.838 394.445C455.542 394.445 454.492 395.496 454.492 396.791C454.492 398.087 455.542 399.137 456.838 399.137Z" fill="#FF3C3C"/>
<path d="M466.925 396.791C466.925 398.081 465.869 399.137 464.579 399.137C463.289 399.137 462.233 398.081 462.233 396.791C462.233 395.501 463.289 394.445 464.579 394.445C465.869 394.445 466.925 395.501 466.925 396.791Z" fill="#FF3C3C"/>
<path d="M474.548 396.791C474.548 398.081 473.493 399.137 472.203 399.137C470.912 399.137 469.857 398.081 469.857 396.791C469.857 395.501 470.912 394.445 472.203 394.445C473.493 394.445 474.548 395.501 474.548 396.791Z" fill="#FF3C3C"/>
<path d="M443.702 403.83C443.702 405.12 442.646 406.176 441.356 406.176C440.066 406.176 439.01 405.12 439.01 403.83C439.01 402.54 440.066 401.484 441.356 401.484C442.646 401.484 443.702 402.54 443.702 403.83Z" fill="#FF3C3C"/>
<path d="M451.443 403.83C451.443 405.12 450.387 406.176 449.097 406.176C447.807 406.176 446.751 405.12 446.751 403.83C446.751 402.54 447.807 401.484 449.097 401.484C450.387 401.484 451.443 402.54 451.443 403.83Z" fill="#FF3C3C"/>
<path d="M459.184 403.83C459.184 405.12 458.128 406.176 456.838 406.176C455.548 406.176 454.492 405.12 454.492 403.83C454.492 402.54 455.548 401.484 456.838 401.484C458.128 401.484 459.184 402.54 459.184 403.83Z" fill="#FF3C3C"/>
<path d="M466.925 403.83C466.925 405.12 465.869 406.176 464.579 406.176C463.289 406.176 462.233 405.12 462.233 403.83C462.233 402.54 463.289 401.484 464.579 401.484C465.869 401.484 466.925 402.54 466.925 403.83Z" fill="#FF3C3C"/>
<path d="M474.548 403.83C474.548 405.12 473.493 406.176 472.203 406.176C470.912 406.176 469.857 405.12 469.857 403.83C469.857 402.54 470.912 401.484 472.203 401.484C473.493 401.484 474.548 402.54 474.548 403.83Z" fill="#FF3C3C"/>
<path d="M443.702 410.752C443.702 412.042 442.646 413.098 441.356 413.098C440.066 413.098 439.01 412.042 439.01 410.752C439.01 409.462 440.066 408.406 441.356 408.406C442.646 408.406 443.702 409.462 443.702 410.752Z" fill="#FF3C3C"/>
<path d="M451.443 410.752C451.443 412.042 450.387 413.098 449.097 413.098C447.807 413.098 446.751 412.042 446.751 410.752C446.751 409.462 447.807 408.406 449.097 408.406C450.387 408.406 451.443 409.462 451.443 410.752Z" fill="#FF3C3C"/>
<path d="M459.184 410.752C459.184 412.042 458.128 413.098 456.838 413.098C455.548 413.098 454.492 412.042 454.492 410.752C454.492 409.462 455.548 408.406 456.838 408.406C458.128 408.406 459.184 409.462 459.184 410.752Z" fill="#FF3C3C"/>
<path d="M466.925 410.752C466.925 412.042 465.869 413.098 464.579 413.098C463.289 413.098 462.233 412.042 462.233 410.752C462.233 409.462 463.289 408.406 464.579 408.406C465.869 408.406 466.925 409.462 466.925 410.752Z" fill="#FF3C3C"/>
<path d="M474.548 410.752C474.548 412.042 473.493 413.098 472.203 413.098C470.912 413.098 469.857 412.042 469.857 410.752C469.857 409.462 470.912 408.406 472.203 408.406C473.493 408.406 474.548 409.462 474.548 410.752Z" fill="#FF3C3C"/>
<path d="M435.843 394.445H434.553V413.211H435.843V394.445Z" fill="#000501" fill-opacity="0.5"/>
<path d="M478.184 356.086H357.143V384.001H478.184V356.086Z" fill="#000501" fill-opacity="0.4"/>
<path d="M431.152 360.664H362.304V363.01H431.152V360.664Z" fill="#000501" fill-opacity="0.3"/>
<path d="M431.152 364.766H362.304V367.111H431.152V364.766Z" fill="#000501" fill-opacity="0.3"/>
<path d="M431.152 368.875H362.304V371.221H431.152V368.875Z" fill="#000501" fill-opacity="0.3"/>
<path d="M431.152 372.977H362.304V375.322H431.152V372.977Z" fill="#000501" fill-opacity="0.3"/>
<path d="M431.152 377.086H362.304V379.432H431.152V377.086Z" fill="#000501" fill-opacity="0.3"/>
<path d="M443.702 363.01C443.702 364.3 442.646 365.356 441.356 365.356C440.066 365.356 439.01 364.3 439.01 363.01C439.01 361.72 440.066 360.664 441.356 360.664C442.646 360.664 443.702 361.72 443.702 363.01Z" fill="#FF3C3C"/>
<path d="M451.443 363.01C451.443 364.3 450.387 365.356 449.097 365.356C447.807 365.356 446.751 364.3 446.751 363.01C446.751 361.72 447.807 360.664 449.097 360.664C450.387 360.664 451.443 361.72 451.443 363.01Z" fill="#FF3C3C"/>
<path d="M459.184 363.01C459.184 364.3 458.128 365.356 456.838 365.356C455.548 365.356 454.492 364.3 454.492 363.01C454.492 361.72 455.548 360.664 456.838 360.664C458.128 360.664 459.184 361.72 459.184 363.01Z" fill="#FF3C3C"/>
<path d="M466.925 363.01C466.925 364.3 465.869 365.356 464.579 365.356C463.289 365.356 462.233 364.3 462.233 363.01C462.233 361.72 463.289 360.664 464.579 360.664C465.869 360.664 466.925 361.72 466.925 363.01Z" fill="#FF3C3C"/>
<path d="M474.548 363.01C474.548 364.3 473.493 365.356 472.203 365.356C470.912 365.356 469.857 364.3 469.857 363.01C469.857 361.72 470.912 360.664 472.203 360.664C473.493 360.664 474.548 361.72 474.548 363.01Z" fill="#FF3C3C"/>
<path d="M441.356 372.395C442.651 372.395 443.702 371.344 443.702 370.049C443.702 368.753 442.651 367.703 441.356 367.703C440.06 367.703 439.01 368.753 439.01 370.049C439.01 371.344 440.06 372.395 441.356 372.395Z" fill="#FF3C3C"/>
<path d="M451.443 370.049C451.443 371.339 450.387 372.395 449.097 372.395C447.807 372.395 446.751 371.339 446.751 370.049C446.751 368.759 447.807 367.703 449.097 367.703C450.387 367.703 451.443 368.759 451.443 370.049Z" fill="#FF3C3C"/>
<path d="M456.838 372.395C458.133 372.395 459.184 371.344 459.184 370.049C459.184 368.753 458.133 367.703 456.838 367.703C455.542 367.703 454.492 368.753 454.492 370.049C454.492 371.344 455.542 372.395 456.838 372.395Z" fill="#FF3C3C"/>
<path d="M466.925 370.049C466.925 371.339 465.869 372.395 464.579 372.395C463.289 372.395 462.233 371.339 462.233 370.049C462.233 368.759 463.289 367.703 464.579 367.703C465.869 367.703 466.925 368.759 466.925 370.049Z" fill="#FF3C3C"/>
<path d="M474.548 370.049C474.548 371.339 473.493 372.395 472.203 372.395C470.912 372.395 469.857 371.339 469.857 370.049C469.857 368.759 470.912 367.703 472.203 367.703C473.493 367.703 474.548 368.759 474.548 370.049Z" fill="#FF3C3C"/>
<path d="M441.356 379.434C442.651 379.434 443.702 378.383 443.702 377.088C443.702 375.792 442.651 374.742 441.356 374.742C440.06 374.742 439.01 375.792 439.01 377.088C439.01 378.383 440.06 379.434 441.356 379.434Z" fill="#FF3C3C"/>
<path d="M451.443 377.088C451.443 378.378 450.387 379.434 449.097 379.434C447.807 379.434 446.751 378.378 446.751 377.088C446.751 375.798 447.807 374.742 449.097 374.742C450.387 374.742 451.443 375.798 451.443 377.088Z" fill="#FF3C3C"/>
<path d="M456.838 379.434C458.133 379.434 459.184 378.383 459.184 377.088C459.184 375.792 458.133 374.742 456.838 374.742C455.542 374.742 454.492 375.792 454.492 377.088C454.492 378.383 455.542 379.434 456.838 379.434Z" fill="#FF3C3C"/>
<path d="M466.925 377.088C466.925 378.378 465.869 379.434 464.579 379.434C463.289 379.434 462.233 378.378 462.233 377.088C462.233 375.798 463.289 374.742 464.579 374.742C465.869 374.742 466.925 375.798 466.925 377.088Z" fill="#FF3C3C"/>
<path d="M474.548 377.088C474.548 378.378 473.493 379.434 472.203 379.434C470.912 379.434 469.857 378.378 469.857 377.088C469.857 375.798 470.912 374.742 472.203 374.742C473.493 374.742 474.548 375.798 474.548 377.088Z" fill="#FF3C3C"/>
<path d="M435.843 360.664H434.553V379.43H435.843V360.664Z" fill="#000501" fill-opacity="0.5"/>
<path d="M478.184 322.43H357.143V350.344H478.184V322.43Z" fill="#000501" fill-opacity="0.4"/>
<path d="M431.152 327.008H362.304V329.354H431.152V327.008Z" fill="#000501" fill-opacity="0.3"/>
<path d="M431.152 331.109H362.304V333.455H431.152V331.109Z" fill="#000501" fill-opacity="0.3"/>
<path d="M431.152 335.219H362.304V337.565H431.152V335.219Z" fill="#000501" fill-opacity="0.3"/>
<path d="M431.152 339.32H362.304V341.666H431.152V339.32Z" fill="#000501" fill-opacity="0.3"/>
<path d="M431.152 343.43H362.304V345.775H431.152V343.43Z" fill="#000501" fill-opacity="0.3"/>
<path d="M441.356 331.699C442.651 331.699 443.702 330.649 443.702 329.354C443.702 328.058 442.651 327.008 441.356 327.008C440.06 327.008 439.01 328.058 439.01 329.354C439.01 330.649 440.06 331.699 441.356 331.699Z" fill="#FF3C3C"/>
<path d="M451.443 329.354C451.443 330.644 450.387 331.699 449.097 331.699C447.807 331.699 446.751 330.644 446.751 329.354C446.751 328.063 447.807 327.008 449.097 327.008C450.387 327.008 451.443 328.063 451.443 329.354Z" fill="#FF3C3C"/>
<path d="M456.838 331.699C458.133 331.699 459.184 330.649 459.184 329.354C459.184 328.058 458.133 327.008 456.838 327.008C455.542 327.008 454.492 328.058 454.492 329.354C454.492 330.649 455.542 331.699 456.838 331.699Z" fill="#FF3C3C"/>
<path d="M466.925 329.354C466.925 330.644 465.869 331.699 464.579 331.699C463.289 331.699 462.233 330.644 462.233 329.354C462.233 328.063 463.289 327.008 464.579 327.008C465.869 327.008 466.925 328.063 466.925 329.354Z" fill="#FF3C3C"/>
<path d="M474.548 329.354C474.548 330.644 473.493 331.699 472.203 331.699C470.912 331.699 469.857 330.644 469.857 329.354C469.857 328.063 470.912 327.008 472.203 327.008C473.493 327.008 474.548 328.063 474.548 329.354Z" fill="#FF3C3C"/>
<path d="M441.356 338.738C442.651 338.738 443.702 337.688 443.702 336.393C443.702 335.097 442.651 334.047 441.356 334.047C440.06 334.047 439.01 335.097 439.01 336.393C439.01 337.688 440.06 338.738 441.356 338.738Z" fill="#FF3C3C"/>
<path d="M451.443 336.393C451.443 337.683 450.387 338.738 449.097 338.738C447.807 338.738 446.751 337.683 446.751 336.393C446.751 335.102 447.807 334.047 449.097 334.047C450.387 334.047 451.443 335.102 451.443 336.393Z" fill="#FF3C3C"/>
<path d="M456.838 338.738C458.133 338.738 459.184 337.688 459.184 336.393C459.184 335.097 458.133 334.047 456.838 334.047C455.542 334.047 454.492 335.097 454.492 336.393C454.492 337.688 455.542 338.738 456.838 338.738Z" fill="#FF3C3C"/>
<path d="M466.925 336.393C466.925 337.683 465.869 338.738 464.579 338.738C463.289 338.738 462.233 337.683 462.233 336.393C462.233 335.102 463.289 334.047 464.579 334.047C465.869 334.047 466.925 335.102 466.925 336.393Z" fill="#FF3C3C"/>
<path d="M474.548 336.393C474.548 337.683 473.493 338.738 472.203 338.738C470.912 338.738 469.857 337.683 469.857 336.393C469.857 335.102 470.912 334.047 472.203 334.047C473.493 334.047 474.548 335.102 474.548 336.393Z" fill="#FF3C3C"/>
<path d="M443.702 343.432C443.702 344.722 442.646 345.777 441.356 345.777C440.066 345.777 439.01 344.722 439.01 343.432C439.01 342.142 440.066 341.086 441.356 341.086C442.646 341.086 443.702 342.142 443.702 343.432Z" fill="#FF3C3C"/>
<path d="M451.443 343.432C451.443 344.722 450.387 345.777 449.097 345.777C447.807 345.777 446.751 344.722 446.751 343.432C446.751 342.142 447.807 341.086 449.097 341.086C450.387 341.086 451.443 342.142 451.443 343.432Z" fill="#FF3C3C"/>
<path d="M459.184 343.432C459.184 344.722 458.128 345.777 456.838 345.777C455.548 345.777 454.492 344.722 454.492 343.432C454.492 342.142 455.548 341.086 456.838 341.086C458.128 341.086 459.184 342.142 459.184 343.432Z" fill="#FF3C3C"/>
<path d="M466.925 343.432C466.925 344.722 465.869 345.777 464.579 345.777C463.289 345.777 462.233 344.722 462.233 343.432C462.233 342.142 463.289 341.086 464.579 341.086C465.869 341.086 466.925 342.142 466.925 343.432Z" fill="#FF3C3C"/>
<path d="M474.548 343.432C474.548 344.722 473.493 345.777 472.203 345.777C470.912 345.777 469.857 344.722 469.857 343.432C469.857 342.142 470.912 341.086 472.203 341.086C473.493 341.086 474.548 342.142 474.548 343.432Z" fill="#FF3C3C"/>
<path d="M435.843 327.008H434.553V345.774H435.843V327.008Z" fill="#000501" fill-opacity="0.5"/>
<path d="M478.184 288.766H357.143V316.68H478.184V288.766Z" fill="#000501" fill-opacity="0.4"/>
<path d="M431.152 293.344H362.304V295.69H431.152V293.344Z" fill="#000501" fill-opacity="0.3"/>
<path d="M431.152 297.445H362.304V299.791H431.152V297.445Z" fill="#000501" fill-opacity="0.3"/>
<path d="M431.152 301.555H362.304V303.9H431.152V301.555Z" fill="#000501" fill-opacity="0.3"/>
<path d="M431.152 305.656H362.304V308.002H431.152V305.656Z" fill="#000501" fill-opacity="0.3"/>
<path d="M431.152 309.648H362.304V311.994H431.152V309.648Z" fill="#000501" fill-opacity="0.3"/>
<path d="M443.702 295.69C443.702 296.98 442.646 298.035 441.356 298.035C440.066 298.035 439.01 296.98 439.01 295.69C439.01 294.399 440.066 293.344 441.356 293.344C442.646 293.344 443.702 294.399 443.702 295.69Z" fill="#FF3C3C"/>
<path d="M451.443 295.69C451.443 296.98 450.387 298.035 449.097 298.035C447.807 298.035 446.751 296.98 446.751 295.69C446.751 294.399 447.807 293.344 449.097 293.344C450.387 293.344 451.443 294.399 451.443 295.69Z" fill="#FF3C3C"/>
<path d="M459.184 295.69C459.184 296.98 458.128 298.035 456.838 298.035C455.548 298.035 454.492 296.98 454.492 295.69C454.492 294.399 455.548 293.344 456.838 293.344C458.128 293.344 459.184 294.399 459.184 295.69Z" fill="#FF3C3C"/>
<path d="M466.925 295.69C466.925 296.98 465.869 298.035 464.579 298.035C463.289 298.035 462.233 296.98 462.233 295.69C462.233 294.399 463.289 293.344 464.579 293.344C465.869 293.344 466.925 294.399 466.925 295.69Z" fill="#FF3C3C"/>
<path d="M474.548 295.69C474.548 296.98 473.493 298.035 472.203 298.035C470.912 298.035 469.857 296.98 469.857 295.69C469.857 294.399 470.912 293.344 472.203 293.344C473.493 293.344 474.548 294.399 474.548 295.69Z" fill="#FF3C3C"/>
<path d="M443.702 302.729C443.702 304.019 442.646 305.074 441.356 305.074C440.066 305.074 439.01 304.019 439.01 302.729C439.01 301.438 440.066 300.383 441.356 300.383C442.646 300.383 443.702 301.438 443.702 302.729Z" fill="#FF3C3C"/>
<path d="M451.443 302.729C451.443 304.019 450.387 305.074 449.097 305.074C447.807 305.074 446.751 304.019 446.751 302.729C446.751 301.438 447.807 300.383 449.097 300.383C450.387 300.383 451.443 301.438 451.443 302.729Z" fill="#FF3C3C"/>
<path d="M459.184 302.729C459.184 304.019 458.128 305.074 456.838 305.074C455.548 305.074 454.492 304.019 454.492 302.729C454.492 301.438 455.548 300.383 456.838 300.383C458.128 300.383 459.184 301.438 459.184 302.729Z" fill="#FF3C3C"/>
<path d="M466.925 302.729C466.925 304.019 465.869 305.074 464.579 305.074C463.289 305.074 462.233 304.019 462.233 302.729C462.233 301.438 463.289 300.383 464.579 300.383C465.869 300.383 466.925 301.438 466.925 302.729Z" fill="#FF3C3C"/>
<path d="M474.548 302.729C474.548 304.019 473.493 305.074 472.203 305.074C470.912 305.074 469.857 304.019 469.857 302.729C469.857 301.438 470.912 300.383 472.203 300.383C473.493 300.383 474.548 301.438 474.548 302.729Z" fill="#FF3C3C"/>
<path d="M443.702 309.768C443.702 311.058 442.646 312.113 441.356 312.113C440.066 312.113 439.01 311.058 439.01 309.768C439.01 308.477 440.066 307.422 441.356 307.422C442.646 307.422 443.702 308.477 443.702 309.768Z" fill="#FF3C3C"/>
<path d="M451.443 309.768C451.443 311.058 450.387 312.113 449.097 312.113C447.807 312.113 446.751 311.058 446.751 309.768C446.751 308.477 447.807 307.422 449.097 307.422C450.387 307.422 451.443 308.477 451.443 309.768Z" fill="#FF3C3C"/>
<path d="M459.184 309.768C459.184 311.058 458.128 312.113 456.838 312.113C455.548 312.113 454.492 311.058 454.492 309.768C454.492 308.477 455.548 307.422 456.838 307.422C458.128 307.422 459.184 308.477 459.184 309.768Z" fill="#FF3C3C"/>
<path d="M466.925 309.768C466.925 311.058 465.869 312.113 464.579 312.113C463.289 312.113 462.233 311.058 462.233 309.768C462.233 308.477 463.289 307.422 464.579 307.422C465.869 307.422 466.925 308.477 466.925 309.768Z" fill="#FF3C3C"/>
<path d="M474.548 309.768C474.548 311.058 473.493 312.113 472.203 312.113C470.912 312.113 469.857 311.058 469.857 309.768C469.857 308.477 470.912 307.422 472.203 307.422C473.493 307.422 474.548 308.477 474.548 309.768Z" fill="#FF3C3C"/>
<path d="M435.843 293.344H434.553V312.11H435.843V293.344Z" fill="#000501" fill-opacity="0.5"/>
<path d="M478.184 254.984H357.143V282.899H478.184V254.984Z" fill="#000501" fill-opacity="0.4"/>
<path d="M431.152 259.68H362.304V262.025H431.152V259.68Z" fill="#000501" fill-opacity="0.3"/>
<path d="M431.152 263.781H362.304V266.127H431.152V263.781Z" fill="#000501" fill-opacity="0.3"/>
<path d="M431.152 267.773H362.304V270.119H431.152V267.773Z" fill="#000501" fill-opacity="0.3"/>
<path d="M431.152 271.875H362.304V274.221H431.152V271.875Z" fill="#000501" fill-opacity="0.3"/>
<path d="M431.152 275.984H362.304V278.33H431.152V275.984Z" fill="#000501" fill-opacity="0.3"/>
<path d="M443.702 262.025C443.702 263.316 442.646 264.371 441.356 264.371C440.066 264.371 439.01 263.316 439.01 262.025C439.01 260.735 440.066 259.68 441.356 259.68C442.646 259.68 443.702 260.735 443.702 262.025Z" fill="#FF3C3C"/>
<path d="M451.443 262.025C451.443 263.316 450.387 264.371 449.097 264.371C447.807 264.371 446.751 263.316 446.751 262.025C446.751 260.735 447.807 259.68 449.097 259.68C450.387 259.68 451.443 260.735 451.443 262.025Z" fill="#FF3C3C"/>
<path d="M459.184 262.025C459.184 263.316 458.128 264.371 456.838 264.371C455.548 264.371 454.492 263.316 454.492 262.025C454.492 260.735 455.548 259.68 456.838 259.68C458.128 259.68 459.184 260.735 459.184 262.025Z" fill="#FF3C3C"/>
<path d="M466.925 262.025C466.925 263.316 465.869 264.371 464.579 264.371C463.289 264.371 462.233 263.316 462.233 262.025C462.233 260.735 463.289 259.68 464.579 259.68C465.869 259.68 466.925 260.735 466.925 262.025Z" fill="#FF3C3C"/>
<path d="M474.548 262.025C474.548 263.316 473.493 264.371 472.203 264.371C470.912 264.371 469.857 263.316 469.857 262.025C469.857 260.735 470.912 259.68 472.203 259.68C473.493 259.68 474.548 260.735 474.548 262.025Z" fill="#FF3C3C"/>
<path d="M443.702 268.947C443.702 270.237 442.646 271.293 441.356 271.293C440.066 271.293 439.01 270.237 439.01 268.947C439.01 267.657 440.066 266.602 441.356 266.602C442.646 266.602 443.702 267.657 443.702 268.947Z" fill="#FF3C3C"/>
<path d="M451.443 268.947C451.443 270.237 450.387 271.293 449.097 271.293C447.807 271.293 446.751 270.237 446.751 268.947C446.751 267.657 447.807 266.602 449.097 266.602C450.387 266.602 451.443 267.657 451.443 268.947Z" fill="#FF3C3C"/>
<path d="M459.184 268.947C459.184 270.237 458.128 271.293 456.838 271.293C455.548 271.293 454.492 270.237 454.492 268.947C454.492 267.657 455.548 266.602 456.838 266.602C458.128 266.602 459.184 267.657 459.184 268.947Z" fill="#FF3C3C"/>
<path d="M466.925 268.947C466.925 270.237 465.869 271.293 464.579 271.293C463.289 271.293 462.233 270.237 462.233 268.947C462.233 267.657 463.289 266.602 464.579 266.602C465.869 266.602 466.925 267.657 466.925 268.947Z" fill="#FF3C3C"/>
<path d="M474.548 268.947C474.548 270.237 473.493 271.293 472.203 271.293C470.912 271.293 469.857 270.237 469.857 268.947C469.857 267.657 470.912 266.602 472.203 266.602C473.493 266.602 474.548 267.657 474.548 268.947Z" fill="#FF3C3C"/>
<path d="M443.702 275.986C443.702 277.277 442.646 278.332 441.356 278.332C440.066 278.332 439.01 277.277 439.01 275.986C439.01 274.696 440.066 273.641 441.356 273.641C442.646 273.641 443.702 274.696 443.702 275.986Z" fill="#FF3C3C"/>
<path d="M451.443 275.986C451.443 277.277 450.387 278.332 449.097 278.332C447.807 278.332 446.751 277.277 446.751 275.986C446.751 274.696 447.807 273.641 449.097 273.641C450.387 273.641 451.443 274.696 451.443 275.986Z" fill="#FF3C3C"/>
<path d="M459.184 275.986C459.184 277.277 458.128 278.332 456.838 278.332C455.548 278.332 454.492 277.277 454.492 275.986C454.492 274.696 455.548 273.641 456.838 273.641C458.128 273.641 459.184 274.696 459.184 275.986Z" fill="#FF3C3C"/>
<path d="M466.925 275.986C466.925 277.277 465.869 278.332 464.579 278.332C463.289 278.332 462.233 277.277 462.233 275.986C462.233 274.696 463.289 273.641 464.579 273.641C465.869 273.641 466.925 274.696 466.925 275.986Z" fill="#FF3C3C"/>
<path d="M474.548 275.986C474.548 277.277 473.493 278.332 472.203 278.332C470.912 278.332 469.857 277.277 469.857 275.986C469.857 274.696 470.912 273.641 472.203 273.641C473.493 273.641 474.548 274.696 474.548 275.986Z" fill="#FF3C3C"/>
<path d="M435.843 259.68H434.553V278.446H435.843V259.68Z" fill="#000501" fill-opacity="0.5"/>
<path d="M478.184 221.328H357.143V249.243H478.184V221.328Z" fill="#000501" fill-opacity="0.4"/>
<path d="M431.152 225.906H362.304V228.252H431.152V225.906Z" fill="#000501" fill-opacity="0.3"/>
<path d="M431.152 230.008H362.304V232.354H431.152V230.008Z" fill="#000501" fill-opacity="0.3"/>
<path d="M431.152 234.117H362.304V236.463H431.152V234.117Z" fill="#000501" fill-opacity="0.3"/>
<path d="M431.152 238.219H362.304V240.565H431.152V238.219Z" fill="#000501" fill-opacity="0.3"/>
<path d="M431.152 242.328H362.304V244.674H431.152V242.328Z" fill="#000501" fill-opacity="0.3"/>
<path d="M443.702 228.252C443.702 229.542 442.646 230.598 441.356 230.598C440.066 230.598 439.01 229.542 439.01 228.252C439.01 226.962 440.066 225.906 441.356 225.906C442.646 225.906 443.702 226.962 443.702 228.252Z" fill="#FF3C3C"/>
<path d="M451.443 228.252C451.443 229.542 450.387 230.598 449.097 230.598C447.807 230.598 446.751 229.542 446.751 228.252C446.751 226.962 447.807 225.906 449.097 225.906C450.387 225.906 451.443 226.962 451.443 228.252Z" fill="#FF3C3C"/>
<path d="M459.184 228.252C459.184 229.542 458.128 230.598 456.838 230.598C455.548 230.598 454.492 229.542 454.492 228.252C454.492 226.962 455.548 225.906 456.838 225.906C458.128 225.906 459.184 226.962 459.184 228.252Z" fill="#FF3C3C"/>
<path d="M466.925 228.252C466.925 229.542 465.869 230.598 464.579 230.598C463.289 230.598 462.233 229.542 462.233 228.252C462.233 226.962 463.289 225.906 464.579 225.906C465.869 225.906 466.925 226.962 466.925 228.252Z" fill="#FF3C3C"/>
<path d="M474.548 228.252C474.548 229.542 473.493 230.598 472.203 230.598C470.912 230.598 469.857 229.542 469.857 228.252C469.857 226.962 470.912 225.906 472.203 225.906C473.493 225.906 474.548 226.962 474.548 228.252Z" fill="#FF3C3C"/>
<path d="M441.356 237.637C442.651 237.637 443.702 236.587 443.702 235.291C443.702 233.996 442.651 232.945 441.356 232.945C440.06 232.945 439.01 233.996 439.01 235.291C439.01 236.587 440.06 237.637 441.356 237.637Z" fill="#FF3C3C"/>
<path d="M451.443 235.291C451.443 236.581 450.387 237.637 449.097 237.637C447.807 237.637 446.751 236.581 446.751 235.291C446.751 234.001 447.807 232.945 449.097 232.945C450.387 232.945 451.443 234.001 451.443 235.291Z" fill="#FF3C3C"/>
<path d="M456.838 237.637C458.133 237.637 459.184 236.587 459.184 235.291C459.184 233.996 458.133 232.945 456.838 232.945C455.542 232.945 454.492 233.996 454.492 235.291C454.492 236.587 455.542 237.637 456.838 237.637Z" fill="#FF3C3C"/>
<path d="M466.925 235.291C466.925 236.581 465.869 237.637 464.579 237.637C463.289 237.637 462.233 236.581 462.233 235.291C462.233 234.001 463.289 232.945 464.579 232.945C465.869 232.945 466.925 234.001 466.925 235.291Z" fill="#FF3C3C"/>
<path d="M474.548 235.291C474.548 236.581 473.493 237.637 472.203 237.637C470.912 237.637 469.857 236.581 469.857 235.291C469.857 234.001 470.912 232.945 472.203 232.945C473.493 232.945 474.548 234.001 474.548 235.291Z" fill="#FF3C3C"/>
<path d="M443.702 242.33C443.702 243.62 442.646 244.676 441.356 244.676C440.066 244.676 439.01 243.62 439.01 242.33C439.01 241.04 440.066 239.984 441.356 239.984C442.646 239.984 443.702 241.04 443.702 242.33Z" fill="#FF3C3C"/>
<path d="M451.443 242.33C451.443 243.62 450.387 244.676 449.097 244.676C447.807 244.676 446.751 243.62 446.751 242.33C446.751 241.04 447.807 239.984 449.097 239.984C450.387 239.984 451.443 241.04 451.443 242.33Z" fill="#FF3C3C"/>
<path d="M459.184 242.33C459.184 243.62 458.128 244.676 456.838 244.676C455.548 244.676 454.492 243.62 454.492 242.33C454.492 241.04 455.548 239.984 456.838 239.984C458.128 239.984 459.184 241.04 459.184 242.33Z" fill="#FF3C3C"/>
<path d="M466.925 242.33C466.925 243.62 465.869 244.676 464.579 244.676C463.289 244.676 462.233 243.62 462.233 242.33C462.233 241.04 463.289 239.984 464.579 239.984C465.869 239.984 466.925 241.04 466.925 242.33Z" fill="#FF3C3C"/>
<path d="M474.548 242.33C474.548 243.62 473.493 244.676 472.203 244.676C470.912 244.676 469.857 243.62 469.857 242.33C469.857 241.04 470.912 239.984 472.203 239.984C473.493 239.984 474.548 241.04 474.548 242.33Z" fill="#FF3C3C"/>
<path d="M435.843 225.906H434.553V244.672H435.843V225.906Z" fill="#000501" fill-opacity="0.5"/>
<path d="M458.48 198.102H298.851V207.015H458.48V198.102Z" fill="#4C4D6C"/>
<path d="M300.493 450.508H282.665V468.336H300.493V450.508Z" fill="#262936"/>
<path d="M38.9397 414.852H7.74097V446.05H38.9397V414.852Z" fill="#4C4D6C"/>
<path d="M23.3403 440.893C29.1054 440.893 33.7789 436.219 33.7789 430.454C33.7789 424.689 29.1054 420.016 23.3403 420.016C17.5752 420.016 12.9016 424.689 12.9016 430.454C12.9016 436.219 17.5752 440.893 23.3403 440.893Z" fill="#35374C"/>
<path d="M21.4637 426.227H19.1179V434.789H21.4637V426.227Z" fill="#000501" fill-opacity="0.5"/>
<path d="M27.9146 426.227H25.5688V434.789H27.9146V426.227Z" fill="#000501" fill-opacity="0.5"/>
<path d="M0 494.485L62.5147 494.133H125.029L249.941 493.898L374.971 494.133H437.485L500 494.485L437.485 494.719L374.971 494.837L249.941 495.071L125.029 494.837L62.5147 494.719L0 494.485Z" fill="#000501" fill-opacity="0.5"/>
<path d="M106.967 465.048C108.14 467.511 103.683 485.339 102.275 488.975C100.868 492.611 95.9418 513.019 93.596 513.958C91.2502 514.896 79.6387 514.544 77.9967 513.958C76.3546 513.371 77.9967 509.853 79.8733 508.68C81.7499 507.507 83.9784 505.63 83.9784 505.63C83.9784 505.63 80.577 474.08 81.1634 470.561C81.8672 466.925 103.917 458.363 106.967 465.048Z" fill="#F3AD8B"/>
<path opacity="0.1" d="M106.967 465.048C108.14 467.511 103.683 485.339 102.275 488.975C100.868 492.611 95.9418 513.019 93.596 513.958C91.2502 514.896 79.6387 514.544 77.9967 513.958C76.3546 513.371 77.9967 509.853 79.8733 508.68C81.7499 507.507 83.9784 505.63 83.9784 505.63C83.9784 505.63 80.577 474.08 81.1634 470.561C81.8672 466.925 103.917 458.363 106.967 465.048Z" fill="#000501"/>
<path opacity="0.1" d="M82.6882 512.667C82.8055 512.081 83.04 511.377 83.3919 510.908C83.7438 510.439 84.2129 509.97 84.6821 509.501C85.1512 509.149 85.7377 508.797 86.3241 508.68C86.4414 508.68 86.4414 508.797 86.4414 508.797C86.2068 509.032 85.9723 509.149 85.855 509.383C85.6204 509.618 85.3858 509.735 85.2685 509.97C84.9167 510.439 84.5648 510.791 84.3302 511.377C84.0956 511.846 83.7438 512.316 83.5092 512.902C83.2746 513.371 83.1573 513.958 82.9228 514.544C82.9228 514.661 82.6882 514.661 82.6882 514.544C82.5709 513.84 82.5709 513.254 82.6882 512.667Z" fill="#000501"/>
<path opacity="0.1" d="M79.4041 510.791C79.9905 509.618 81.0461 508.797 82.219 508.328C82.3363 508.328 82.3363 508.445 82.3363 508.445C81.5153 509.149 80.6943 509.97 80.1078 511.026C79.5214 512.081 79.2868 513.254 79.6387 514.427C79.6387 514.427 79.6387 514.544 79.5214 514.427C78.8176 513.254 78.7003 511.847 79.4041 510.791Z" fill="#000501"/>
<path opacity="0.1" d="M82.219 487.922L98.1702 503.052C99.9295 497.305 101.572 490.971 102.275 489.095C103.683 485.459 108.14 467.631 107.084 465.168C104.035 458.482 81.8672 467.044 81.2807 470.563C80.9288 472.205 81.5153 480.063 82.219 487.922Z" fill="#000501"/>
<path d="M167.253 482.873C167.957 483.459 174.173 477.595 175.111 474.78C176.05 471.965 172.062 464.107 172.766 462.816C173.469 461.526 176.871 460.353 178.747 462.464C180.507 464.576 185.081 475.718 184.143 480.527C183.204 485.336 173.469 496.126 172.531 496.009C171.475 496.009 167.253 482.873 167.253 482.873Z" fill="#F3AD8B"/>
<path opacity="0.1" d="M167.253 482.871C167.253 482.871 171.475 496.008 172.531 496.008C173.235 496.008 178.63 490.261 181.797 485.334L173 477.945C170.772 480.643 167.605 483.341 167.253 482.871Z" fill="#000501"/>
<path d="M131.715 428.688H79.6388C79.6388 428.688 75.7683 462.936 76.2374 467.51C76.7066 472.084 99.5778 505.629 106.615 509.968C113.77 514.425 154.469 514.543 164.438 512.314C172.179 510.672 178.63 500.82 175.346 485.572C173.939 478.887 155.876 463.17 153.296 460.121C150.833 457.189 131.715 428.688 131.715 428.688Z" fill="#C7C7C7"/>
<path d="M76.2374 467.51C76.7065 472.084 99.5778 505.629 106.615 509.968C113.77 514.425 154.469 514.543 164.438 512.314C172.179 510.555 178.63 500.703 175.346 485.572C173.939 478.887 155.876 463.17 153.296 460.121C151.771 458.244 144.03 446.867 138.166 438.305C134.53 432.91 131.597 428.57 131.597 428.57H79.6388C79.6388 428.57 78.7004 437.132 77.7621 446.281C76.8238 455.547 76.0028 465.164 76.2374 467.51Z" fill="#F3AD8B"/>
<path opacity="0.1" d="M77.7621 446.398C105.794 455.077 130.659 442.762 138.283 438.305C134.647 432.91 131.715 428.57 131.715 428.57H79.6387C79.6387 428.688 78.7004 437.25 77.7621 446.398Z" fill="#000501"/>
<path d="M165.494 483.932C165.494 483.932 151.185 474.901 141.098 476.543C131.011 478.185 127.492 498.828 132.301 510.44C132.301 510.44 123.153 513.137 123.153 517.594C123.153 520.175 128.431 520.878 135.937 520.761C143.444 520.526 158.574 520.409 158.808 518.533C159.16 516.656 157.87 513.958 157.87 513.958C157.87 513.958 171.475 512.434 174.056 503.402C176.753 494.488 167.722 485.457 165.494 483.932Z" fill="#F3AD8B"/>
<path opacity="0.1" d="M145.907 511.492C149.66 513.134 153.882 513.955 157.987 514.19C158.105 514.19 158.105 514.307 157.987 514.307C153.648 514.776 149.543 513.721 145.907 511.492C145.789 511.609 145.789 511.492 145.907 511.492Z" fill="#000501"/>
<path opacity="0.1" d="M129.017 520.88C129.369 519.121 130.776 517.831 132.184 516.893C133.005 516.306 133.943 515.837 134.881 515.602C135.937 515.251 137.11 515.016 138.166 514.664C138.283 514.664 138.283 514.781 138.283 514.781C137.345 515.133 136.406 515.602 135.585 516.072C134.764 516.541 133.826 517.01 133.005 517.596C131.597 518.535 130.542 519.825 129.486 521.115C129.252 521.115 128.9 520.998 129.017 520.88Z" fill="#000501"/>
<path opacity="0.1" d="M130.894 513.727C131.011 513.727 131.011 513.844 130.894 513.844C128.079 514.899 125.968 517.362 124.677 519.943C124.677 520.06 124.443 520.06 124.443 519.943C124.795 516.659 127.61 514.196 130.894 513.727Z" fill="#000501"/>
<path opacity="0.1" d="M126.437 513.137C126.671 513.137 129.252 511.378 132.184 510.557C132.418 510.908 132.653 511.378 132.888 511.73C132.888 511.847 133.005 511.73 133.005 511.612C131.246 507.976 130.542 503.988 130.542 500.001C130.542 497.889 130.659 495.778 130.894 493.667C131.48 489.914 132.536 486.395 134.295 483.111C135.351 481.117 136.758 479.123 138.752 478.068C140.629 476.895 143.092 476.778 145.437 476.895C147.783 477.012 150.129 477.481 152.357 478.185C154.586 478.772 156.932 479.593 159.043 480.531C154.82 478.302 150.364 476.543 145.437 475.957C142.974 475.722 140.511 475.839 138.166 477.129C135.937 478.42 134.412 480.531 133.239 482.525C131.011 486.864 129.838 491.673 129.603 496.482C129.603 497.068 129.603 497.655 129.603 498.124C129.603 498.828 129.603 499.532 129.603 500.353C129.721 503.871 130.425 507.273 132.067 510.322C129.486 510.909 127.961 511.612 126.437 513.137Z" fill="#000501"/>
<path d="M123.856 469.509C125.029 471.972 120.572 489.8 119.165 493.436C117.757 497.072 112.831 517.48 110.486 518.419C108.14 519.357 96.5282 519.005 94.8862 518.419C93.2441 517.832 94.8862 514.314 96.7628 513.141C98.6394 511.968 100.868 510.091 100.868 510.091C100.868 510.091 97.4665 478.541 98.053 475.022C98.6394 471.386 120.807 462.824 123.856 469.509Z" fill="#F3AD8B"/>
<path opacity="0.1" d="M115.998 503.288C117.054 500.122 118.461 496.955 119.517 493.788C119.517 493.671 119.751 493.671 119.751 493.905C118.93 496.486 118.344 499.183 117.523 501.764C117.64 501.529 117.757 501.412 117.875 501.177C118.578 500.122 119.399 499.066 119.751 497.893C119.751 497.776 119.986 497.776 119.986 498.01C119.869 498.597 119.517 499.066 119.282 499.535C118.93 500.122 118.696 500.708 118.344 501.294C117.992 501.998 117.523 502.819 117.054 503.523V503.64C115.998 506.924 114.943 510.091 113.535 513.141C113.418 513.258 113.183 513.258 113.3 513.023C113.887 509.739 114.942 506.572 115.998 503.288Z" fill="#000501"/>
<path opacity="0.1" d="M97.5838 479.947C97.5838 479.83 97.7011 479.83 97.7011 479.947C98.053 482.293 98.1703 484.756 98.4049 487.102C98.6394 489.565 98.9913 492.145 99.2259 494.608C99.8123 499.534 100.633 504.461 100.985 509.504C100.985 509.739 100.633 509.739 100.516 509.504C99.2259 504.695 98.6394 499.769 98.053 494.843C97.8184 492.38 97.5838 489.917 97.4666 487.571C97.5838 485.108 97.4666 482.528 97.5838 479.947Z" fill="#000501"/>
<path opacity="0.1" d="M98.9913 516.777C99.1086 516.19 99.3431 515.487 99.695 515.018C100.047 514.548 100.516 514.079 100.985 513.61C101.454 513.258 102.041 512.906 102.627 512.789C102.744 512.789 102.744 512.906 102.744 512.906C102.51 513.141 102.275 513.258 102.158 513.493C101.923 513.727 101.689 513.845 101.572 514.079C101.22 514.548 100.868 514.9 100.633 515.487C100.399 515.956 100.047 516.425 99.8123 517.011C99.5777 517.481 99.4604 518.067 99.2258 518.653C99.2258 518.771 98.9913 518.771 98.9913 518.653C98.7567 518.067 98.874 517.363 98.9913 516.777Z" fill="#000501"/>
<path opacity="0.1" d="M95.5899 514.901C96.1764 513.728 97.232 512.907 98.4049 512.438C98.5221 512.438 98.5221 512.555 98.5221 512.555C97.7011 513.259 96.8801 514.08 96.2937 515.135C95.7072 516.191 95.4726 517.364 95.8245 518.537C95.8245 518.537 95.8245 518.654 95.7072 518.537C95.0035 517.481 95.0035 516.073 95.5899 514.901Z" fill="#000501"/>
<path d="M99.5777 380.954C100.164 378.843 95.0035 371.571 93.0096 369.225C91.0157 366.762 80.2251 363.126 76.8238 365.003C75.4163 365.707 72.9533 370.867 69.5519 375.442C64.2739 382.362 58.1749 389.751 60.4034 391.627C65.7987 396.436 78.114 388.93 82.1018 386.349C86.0896 383.769 89.7255 380.72 90.7811 380.837C92.0713 380.954 94.7689 383.065 95.8245 383.183C98.5221 383.417 99.5777 380.954 99.5777 380.954Z" fill="#F3AD8B"/>
<path opacity="0.1" d="M99.5777 380.954C100.164 378.843 95.0035 371.571 93.0096 369.225C91.0157 366.762 80.2251 363.126 76.8238 365.003C75.4163 365.707 72.9533 370.867 69.5519 375.442C64.2739 382.362 58.1749 389.751 60.4034 391.627C65.7987 396.436 78.114 388.93 82.1018 386.349C86.0896 383.769 89.7255 380.72 90.7811 380.837C92.0713 380.954 94.7689 383.065 95.8245 383.183C98.5221 383.417 99.5777 380.954 99.5777 380.954Z" fill="#000501"/>
<path d="M124.161 373.845C136.711 381.352 142.341 401.408 142.693 404.575C142.927 407.155 149.026 416.421 147.853 426.39C147.149 432.724 135.773 441.169 126.389 441.169C124.63 441.169 110.086 446.447 97.8884 445.626C85.5731 444.687 76.3074 436.008 75.9555 435.304C75.6036 434.601 65.6341 433.076 65.0477 422.872C63.9921 406.451 80.7643 378.537 85.5731 374.784C93.4314 368.45 115.599 368.685 124.161 373.845Z" fill="#F3AD8B"/>
<path d="M118.578 382.364C118.344 380.136 124.912 373.45 127.258 371.222C129.721 368.993 141.45 366.999 144.734 369.462C146.024 370.401 147.783 376.265 150.481 381.426C154.82 389.519 159.864 398.081 157.284 399.84C150.833 403.945 139.338 394.093 135.585 390.691C131.832 387.407 128.548 383.654 127.492 383.537C126.085 383.42 123.035 385.179 121.862 385.062C119.282 385.062 118.578 382.364 118.578 382.364Z" fill="#F3AD8B"/>
<path opacity="0.1" d="M118.578 382.364C118.344 380.136 124.912 373.45 127.258 371.222C129.721 368.993 141.45 366.999 144.734 369.462C146.024 370.401 147.783 376.265 150.481 381.426C154.82 389.519 159.864 398.081 157.284 399.84C150.833 403.945 139.338 394.093 135.585 390.691C131.832 387.407 128.548 383.654 127.492 383.537C126.085 383.42 123.035 385.179 121.862 385.062C119.282 385.062 118.578 382.364 118.578 382.364Z" fill="#000501"/>
<path opacity="0.1" d="M95.4726 410.391C103.214 410.508 106.732 418.718 107.671 420.829C108.609 422.94 113.418 427.867 113.535 433.027C113.652 438.188 103.917 443.935 93.596 442.058C83.2747 440.299 77.8794 434.435 77.8794 429.274C77.8794 425.052 81.8672 421.416 82.3363 420.36C82.8055 419.305 88.5526 410.391 95.4726 410.391Z" fill="#000501"/>
<path opacity="0.1" d="M114.473 424.938C115.529 426.11 116.35 427.401 117.054 428.808C117.757 430.215 118.344 431.74 118.578 433.265C118.813 434.79 118.813 436.549 118.109 438.074C117.757 438.778 117.288 439.481 116.585 439.95C115.881 440.42 115.177 440.771 114.473 441.006C115.763 440.185 116.819 439.012 117.171 437.605C117.64 436.314 117.64 434.79 117.406 433.382C117.171 431.975 116.702 430.45 116.233 429.043C115.763 427.752 115.177 426.345 114.473 424.938Z" fill="#000501"/>
<path opacity="0.1" d="M79.1695 421.891C78.4658 422.712 77.8793 423.533 77.2929 424.354C76.7065 425.175 76.12 425.996 75.7681 426.934C75.4163 427.872 75.1817 428.693 75.0644 429.749C75.0644 430.687 75.299 431.626 75.6509 432.681C74.9471 431.977 74.3607 430.922 74.2434 429.749C74.1261 428.576 74.3607 427.52 74.7126 426.465C75.1817 425.409 75.7682 424.588 76.5892 423.767C77.2929 422.946 78.1139 422.36 79.1695 421.891Z" fill="#000501"/>
<path d="M199.742 532.373C187.075 532.373 173.117 532.139 159.16 531.904C151.888 531.787 146.258 531.67 142.622 531.67C124.443 531.67 119.165 508.212 114.121 485.575C113.418 482.409 112.714 479.242 112.01 476.192C110.603 470.093 109.313 463.994 108.257 458.13C104.738 439.833 101.572 423.999 93.4787 423.178C82.8055 422.005 73.3051 437.956 69.9037 462.821L67.558 462.47C71.1939 436.197 81.7499 419.425 93.7133 420.832C103.448 421.888 106.732 438.426 110.486 457.661C111.658 463.525 112.831 469.624 114.239 475.606C114.942 478.773 115.646 481.939 116.35 485.106C121.393 507.86 126.202 529.324 142.622 529.324C146.258 529.324 151.888 529.441 159.16 529.558C174.994 529.91 196.692 530.262 215.107 529.91C244.898 529.324 248.417 526.978 248.768 526.274C248.768 521.348 217.335 515.484 205.489 513.255C193.526 511.027 193.056 510.91 193.174 509.502C193.291 508.212 194.816 508.212 196.927 508.212H246.071C261.553 508.212 266.479 486.045 269.411 472.791C270.232 469.038 270.936 465.988 271.64 464.463C275.041 457.309 283.838 458.364 284.189 458.364L283.838 460.71C283.486 460.71 276.448 459.889 273.751 465.519C273.164 466.809 272.461 469.859 271.64 473.377C268.473 487.335 263.312 510.675 245.954 510.675H203.261C204.082 510.792 204.903 511.027 205.724 511.144C234.342 516.539 250.997 520.762 250.997 526.509C250.997 526.978 250.88 527.565 250.293 528.151C246.892 531.435 226.249 532.373 199.742 532.373Z" fill="#3F415A"/>
<path d="M76.1322 461.027L61.7317 460.164L61.2127 468.828L75.6132 469.69L76.1322 461.027Z" fill="#58597E"/>
<path d="M73.6128 458.165L64.5979 457.625L64.4366 460.318L73.4515 460.858L73.6128 458.165Z" fill="#4C4D6C"/>
<path d="M65.9947 469.09L64.3556 468.992L63.9629 475.549L65.6019 475.647L65.9947 469.09Z" fill="#F3AD8B"/>
<path d="M72.4478 469.442L70.8087 469.344L70.416 475.9L72.0551 475.998L72.4478 469.442Z" fill="#F3AD8B"/>
<path d="M288.786 452.206V466.633H295.12V452.206H288.786Z" fill="#1B1E26"/>
<path d="M283.683 454.844V463.875H288.726V454.844H283.683Z" fill="#171B20"/>
<path d="M85.7377 422.942C85.7377 422.942 88.7872 426.461 89.96 425.757C91.1329 425.053 94.0651 418.016 94.0651 418.016C94.0651 418.016 94.7689 426.93 97.1146 427.165C99.4604 427.399 103.331 423.881 103.331 423.881L94.0651 417.43L85.7377 422.942Z" fill="#F3AD8B"/>
<path opacity="0.1" d="M85.7377 422.942C85.7377 422.942 88.7872 426.461 89.96 425.757C91.1329 425.053 94.0651 418.016 94.0651 418.016C94.0651 418.016 94.7689 426.93 97.1146 427.165C99.4604 427.399 103.331 423.881 103.331 423.881L94.0651 417.43L85.7377 422.942Z" fill="#000501"/>
<path opacity="0.1" d="M131.128 411.919C132.067 409.104 132.301 406.055 132.067 403.122C131.949 401.598 131.597 400.073 131.011 398.665C130.776 397.962 130.307 397.258 129.838 396.554C129.369 395.851 128.9 395.264 128.313 394.678C127.961 394.443 127.727 394.208 127.375 393.857C127.023 393.622 126.671 393.387 126.319 393.27L125.85 392.918L125.264 392.684C124.912 392.566 124.56 392.332 124.091 392.215C122.566 391.745 120.924 391.628 119.399 391.745C116.35 391.98 113.418 393.27 111.072 395.029C113.887 394.091 116.702 393.387 119.399 393.505C120.807 393.622 122.097 393.739 123.387 394.208C123.739 394.326 123.974 394.443 124.325 394.56L124.795 394.795L125.264 395.029C125.498 395.264 125.85 395.381 126.085 395.499C126.319 395.733 126.554 395.851 126.789 396.085C127.727 396.906 128.548 398.079 129.017 399.252C129.603 400.425 129.955 401.832 130.307 403.122C130.894 406.055 131.128 408.987 131.128 411.919Z" fill="#000501"/>
<path opacity="0.1" d="M73.8915 405.935C74.1261 403.472 74.478 401.009 75.1817 398.663C75.8854 396.435 77.0583 394.324 78.8176 393.033C79.2868 392.681 79.756 392.447 80.2251 392.212C80.6943 391.978 81.1634 391.86 81.7498 391.743C82.8054 391.626 83.9783 391.626 85.1512 391.86C87.497 392.212 89.8427 392.916 92.3058 393.737C91.3675 392.916 90.3119 392.212 89.139 391.626C88.5526 391.274 87.9661 391.039 87.3797 390.805C86.7932 390.57 86.2068 390.336 85.5031 390.218C84.2129 389.867 82.9227 389.632 81.5153 389.749C80.8115 389.867 80.1078 389.984 79.4041 390.218C78.7004 390.453 78.1139 390.805 77.5275 391.274C76.3546 392.095 75.5336 393.268 74.8298 394.441C74.2434 395.614 73.7742 396.904 73.5397 398.194C73.0705 400.892 73.1878 403.472 73.8915 405.935Z" fill="#000501"/>
<path d="M112.01 408.274C112.01 408.156 112.362 408.508 112.245 408.625C112.01 412.144 112.245 416.249 115.763 417.539C115.881 417.539 115.881 417.774 115.763 417.774C111.541 416.953 111.189 411.558 112.01 408.274Z" fill="#000501"/>
<path d="M115.646 404.642C121.862 404.524 121.862 415.901 116.115 416.019C110.368 416.253 110.368 404.876 115.646 404.642Z" fill="#000501"/>
<path d="M87.8488 405.462C87.8488 405.344 87.497 405.579 87.497 405.696C87.2624 409.215 86.3241 413.203 82.8054 414.024C82.6881 414.024 82.6881 414.258 82.8054 414.258C87.1451 414.141 88.2007 408.863 87.8488 405.462Z" fill="#000501"/>
<path d="M84.682 401.475C78.4657 400.42 76.941 411.797 82.6881 412.735C88.318 413.673 89.96 402.296 84.682 401.475Z" fill="#000501"/>
<path d="M93.9478 417.667C95.0034 418.019 102.744 415.556 102.158 413.21C101.572 410.63 90.6638 410.043 89.2563 411.685C87.9661 413.444 92.775 417.315 93.9478 417.667Z" fill="#000501"/>
<path d="M103.565 423.766C102.275 424.704 101.102 425.525 99.5777 426.229C98.874 426.581 98.0529 426.815 97.4665 426.815C96.9973 426.932 96.6455 426.346 96.4109 425.76C95.9418 424.587 95.7072 423.297 95.4726 422.006C95.238 420.716 95.1207 419.426 95.0034 418.136L94.6516 414.617L93.596 418.136C93.2441 419.191 92.8923 420.247 92.5404 421.303C92.1885 422.358 91.7194 423.414 91.1329 424.352C91.0156 424.587 90.8984 424.821 90.6638 425.056C90.5465 425.29 90.3119 425.525 90.0773 425.642C89.9601 425.76 89.7255 425.76 89.3736 425.76C89.139 425.642 88.7872 425.525 88.5526 425.408C87.497 424.704 86.5587 423.883 85.7377 422.945C86.3241 424 87.0278 424.939 88.0834 425.877C88.318 426.111 88.6699 426.229 89.139 426.463C89.3736 426.463 89.6082 426.581 89.8428 426.581C90.0773 426.581 90.4292 426.463 90.5465 426.463C90.8984 426.229 91.1329 425.994 91.3675 425.76C91.6021 425.525 91.8367 425.29 91.954 425.056C92.6577 424 93.1268 422.945 93.596 421.889C94.0651 420.833 94.417 419.778 94.7689 418.605L93.3614 418.488C93.4787 419.778 93.596 421.185 93.9479 422.476C94.0651 423.179 94.2997 423.766 94.417 424.469C94.6516 425.173 94.8862 425.76 95.238 426.463C95.4726 426.815 95.5899 427.167 95.9418 427.402C96.059 427.519 96.2936 427.753 96.5282 427.871C96.6455 427.988 96.8801 427.988 96.9973 427.988C97.2319 427.988 97.2319 427.988 97.4665 427.988C98.5221 427.871 99.3431 427.519 100.047 427.05C101.454 425.877 102.51 424.821 103.565 423.766Z" fill="#000501" fill-opacity="0.5"/>
<path d="M44.5696 464.346C46.9153 464.112 49.2611 464.229 51.6069 464.346C53.9526 464.464 56.1811 464.698 58.5269 465.285C56.1811 465.519 53.8354 465.402 51.4896 465.285C49.2611 465.05 46.9153 464.816 44.5696 464.346Z" fill="#000501" fill-opacity="0.5"/>
<path d="M78.3485 471.734C80.577 472.438 82.6882 473.494 84.7994 474.432C86.9106 475.488 88.9045 476.66 90.7811 477.951C88.5526 477.247 86.4414 476.191 84.3302 475.253C82.3363 474.197 80.3424 473.142 78.3485 471.734Z" fill="#000501" fill-opacity="0.5"/>
<path d="M52.0759 487.924C53.2488 485.812 54.539 483.936 55.9464 482.059C57.3539 480.183 58.7614 478.423 60.5207 476.781C59.3478 478.892 58.0576 480.769 56.6502 482.646C55.2427 484.405 53.718 486.282 52.0759 487.924Z" fill="#000501" fill-opacity="0.5"/>
<path d="M38.9397 450.508C40.699 451.094 42.5756 451.798 44.335 452.384C46.0943 453.088 47.8536 453.792 49.6129 454.496C51.3723 455.199 53.1316 456.02 54.7736 456.841C56.5329 457.662 58.175 458.483 59.817 459.422C58.0577 458.835 56.1811 458.132 54.4218 457.545C52.6624 456.841 50.9031 456.138 49.1438 455.434C47.3845 454.73 45.6251 453.909 43.9831 453.088C42.2238 452.15 40.5817 451.329 38.9397 450.508Z" fill="#000501" fill-opacity="0.5"/>
<path d="M80.1079 460.823C81.7499 460.002 83.5093 459.298 85.1513 458.829C86.9106 458.36 88.6699 457.891 90.5466 457.656C88.9045 458.477 87.1452 459.181 85.5032 459.65C83.6266 460.237 81.8672 460.706 80.1079 460.823Z" fill="#000501" fill-opacity="0.5"/>
<path d="M63.2183 454.962C62.28 453.437 61.3417 451.912 60.5207 450.27C59.6997 448.746 58.8787 447.104 58.0577 445.461C57.2366 443.819 56.5329 442.295 55.7119 440.653C55.0082 439.011 54.3044 437.369 53.6007 435.727C54.539 437.251 55.4773 438.776 56.2983 440.418C57.1194 441.943 57.9404 443.585 58.7614 445.227C59.5824 446.869 60.2861 448.394 61.1072 450.036C61.8109 451.56 62.6319 453.203 63.2183 454.962Z" fill="#000501" fill-opacity="0.5"/>
<path d="M86.9106 492.021C85.855 490.848 84.9167 489.558 83.9784 488.268C83.0401 486.978 82.1018 485.688 81.1635 484.398C80.2252 483.107 79.4042 481.817 78.5832 480.41C77.7622 479.12 76.9411 477.712 76.1201 476.305C77.1757 477.478 78.114 478.768 79.0523 480.058C79.9906 481.348 80.9289 482.638 81.8672 483.928C82.8056 485.219 83.6266 486.509 84.4476 487.916C85.3859 489.324 86.2069 490.614 86.9106 492.021Z" fill="#000501" fill-opacity="0.5"/>
<path d="M402.416 198.104H305.419L297.912 132.188H394.91L402.416 198.104Z" fill="#A6A6A6"/>
<path d="M397.138 193.643H309.758L303.19 136.641H390.57L397.138 193.643Z" fill="white"/>
<path d="M343.186 166.667L341.778 168.309L328.055 156.462L329.346 154.703L343.186 166.667Z" fill="#FF3C3C"/>
<path d="M339.667 154.703L341.544 156.462L331.574 168.309L329.58 166.667L339.667 154.703Z" fill="#FF3C3C"/>
<path d="M372.508 166.667L371.1 168.309L357.378 156.462L358.785 154.703L372.508 166.667Z" fill="#FF3C3C"/>
<path d="M368.989 154.703L370.866 156.462L360.896 168.309L359.02 166.667L368.989 154.703Z" fill="#FF3C3C"/>
<path d="M326.296 178.041L325.827 175.695H379.193L379.545 178.041H326.296Z" fill="#FF3C3C"/>
<path d="M430.8 193.648H306.122V198.105H430.8V193.648Z" fill="#A6A6A6"/>
<path d="M441.356 193.648H333.216V198.105H441.356V193.648Z" fill="#C7C7C7"/>
<path d="M390.922 139.338L390.57 136.641H303.19L303.542 139.338H390.922Z" fill="#000501" fill-opacity="0.5"/>
<path d="M310.579 138.055C310.579 138.407 310.931 138.759 311.283 138.759C311.635 138.759 311.87 138.407 311.87 138.055C311.87 137.703 311.518 137.352 311.166 137.352C310.814 137.352 310.579 137.586 310.579 138.055Z" fill="#C7C7C7"/>
<path d="M308.116 138.055C308.116 138.407 308.468 138.759 308.82 138.759C309.172 138.759 309.407 138.407 309.407 138.055C309.407 137.703 309.055 137.352 308.703 137.352C308.234 137.352 307.999 137.586 308.116 138.055Z" fill="white"/>
<path d="M305.536 138.055C305.536 138.407 305.888 138.759 306.24 138.759C306.592 138.759 306.826 138.407 306.826 138.055C306.826 137.703 306.474 137.352 306.122 137.352C305.771 137.352 305.536 137.586 305.536 138.055Z" fill="#FF3C3C"/>
</g>
<defs>
<clipPath id="clip0_978_12406">
<rect width="500" height="539.995" fill="white"/>
</clipPath>
</defs>
</svg>
