<svg width="382" height="76" viewBox="0 0 382 76" fill="none" xmlns="http://www.w3.org/2000/svg">
<path d="M27.2109 44.1004V0" stroke="#C7C7C7" stroke-miterlimit="10"/>
<path d="M54.4218 70.2627L52.1933 75.0715H2.11119L0 70.2627L21.2292 55.4844H33.0753L54.4218 70.2627Z" fill="#EBEBEB"/>
<path d="M34.6 41.2891L33.0753 55.4809H21.2292L19.8217 41.2891H34.6Z" fill="#DBDBDB"/>
<path d="M54.4218 70.2578L52.1933 75.0666H2.11119L0 70.2578H54.4218Z" fill="#DBDBDB"/>
<path d="M136.054 44.1004V0" stroke="#C7C7C7" stroke-miterlimit="10"/>
<path d="M163.265 70.2627L161.154 75.0715H111.072L108.844 70.2627L130.19 55.4844H142.036L163.265 70.2627Z" fill="#EBEBEB"/>
<path d="M143.444 41.2891L142.036 55.4809H130.19L128.665 41.2891H143.444Z" fill="#DBDBDB"/>
<path d="M163.265 70.2578L161.154 75.0666H111.072L108.844 70.2578H163.265Z" fill="#DBDBDB"/>
<path d="M245.015 44.1004V0" stroke="#C7C7C7" stroke-miterlimit="10"/>
<path d="M272.226 70.2627L269.998 75.0715H219.916L217.804 70.2627L239.034 55.4844H250.88L272.226 70.2627Z" fill="#EBEBEB"/>
<path d="M252.404 41.2891L250.88 55.4809H239.034L237.626 41.2891H252.404Z" fill="#DBDBDB"/>
<path d="M272.226 70.2578L269.998 75.0666H219.916L217.804 70.2578H272.226Z" fill="#DBDBDB"/>
<path d="M353.859 44.1004V0" stroke="#C7C7C7" stroke-miterlimit="10"/>
<path d="M381.07 70.2627L378.958 75.0715H328.876L326.648 70.2627L347.994 55.4844H359.84L381.07 70.2627Z" fill="#EBEBEB"/>
<path d="M361.248 41.2891L359.84 55.4809H347.994L346.47 41.2891H361.248Z" fill="#DBDBDB"/>
<path d="M381.07 70.2578L378.958 75.0666H328.876L326.648 70.2578H381.07Z" fill="#DBDBDB"/>
</svg>
