<svg width="36" height="29" viewBox="0 0 36 29" fill="none" xmlns="http://www.w3.org/2000/svg">
<path d="M12.5312 14.1172L14.8828 17.2891C15.7943 18.5651 16.25 19.9688 16.25 21.5V27.625C16.2135 28.1719 15.9219 28.4635 15.375 28.5C14.8646 28.4635 14.5729 28.1719 14.5 27.625V21.5C14.5 20.3333 14.1536 19.276 13.4609 18.3281L11.1641 15.1562C10.7995 14.7552 10.3802 14.6823 9.90625 14.9375C9.50521 15.3385 9.45052 15.7396 9.74219 16.1406L11.3828 18.4375C11.3828 18.4375 11.401 18.4375 11.4375 18.4375C11.4375 18.4375 11.4375 18.4557 11.4375 18.4922C11.875 19.2214 11.8932 19.9141 11.4922 20.5703C11.1276 21.2266 10.5625 21.6094 9.79688 21.7188C9.03125 21.8646 8.28385 21.5547 7.55469 20.7891L4.05469 16.5234L4 6.625C3.92708 6.00521 3.63542 5.69531 3.125 5.69531C2.61458 5.69531 2.32292 5.98698 2.25 6.57031L2.30469 17.6719C2.30469 17.8906 2.35938 18.0547 2.46875 18.1641L8.32031 25.4922C8.72135 26.0391 8.99479 26.6771 9.14062 27.4062C9.21354 28.026 8.9401 28.3724 8.32031 28.4453C7.88281 28.4089 7.59115 28.1901 7.44531 27.7891C7.3724 27.3151 7.20833 26.9141 6.95312 26.5859L1.10156 19.2578C0.736979 18.7839 0.554688 18.237 0.554688 17.6172L0.5 6.57031C0.536458 5.84115 0.791667 5.23958 1.26562 4.76562C1.77604 4.25521 2.41406 4 3.17969 4C3.90885 4.03646 4.51042 4.3099 4.98438 4.82031C5.45833 5.36719 5.71354 6.00521 5.75 6.73438L5.80469 15.9766L9.14062 19.9688C9.39583 20.1875 9.61458 20.2057 9.79688 20.0234C10.0156 19.8776 10.0521 19.6589 9.90625 19.3672L8.375 17.2344C7.97396 16.724 7.79167 16.1589 7.82812 15.5391C7.82812 14.9193 8.04688 14.3724 8.48438 13.8984C9.21354 13.1693 9.96094 12.8776 10.7266 13.0234C11.5286 13.1693 12.1302 13.5339 12.5312 14.1172ZM35.4453 6.57031L35.5 17.6719C35.5 18.2917 35.2995 18.8385 34.8984 19.3125L29.1016 26.6406C28.8464 26.9688 28.6641 27.3516 28.5547 27.7891C28.4453 28.2266 28.1719 28.4635 27.7344 28.5C27.1146 28.3906 26.8229 28.026 26.8594 27.4062C27.0052 26.6771 27.2969 26.0573 27.7344 25.5469L33.5859 18.2188C33.6953 18.0729 33.75 17.8906 33.75 17.6719L33.6953 6.625C33.6224 6.04167 33.3307 5.75 32.8203 5.75C32.3099 5.75 32.0182 6.0599 31.9453 6.67969L32 16.5781L28.5 20.8438C27.7708 21.6094 27.0234 21.9193 26.2578 21.7734C25.4922 21.6276 24.9089 21.2448 24.5078 20.625C24.1432 19.9688 24.1797 19.2578 24.6172 18.4922L26.3125 16.1406C26.6042 15.7031 26.5312 15.3021 26.0938 14.9375C25.6562 14.6458 25.2552 14.7188 24.8906 15.1562L22.5938 18.3281C21.8646 19.276 21.5 20.3333 21.5 21.5V27.625C21.4635 28.1354 21.1719 28.4271 20.625 28.5C20.1146 28.4271 19.8229 28.1354 19.75 27.625V21.5C19.7865 19.9323 20.2604 18.5286 21.1719 17.2891L23.4688 14.1172C23.9062 13.5339 24.5078 13.1693 25.2734 13.0234C26.0755 12.8776 26.8411 13.1693 27.5703 13.8984C27.9714 14.3724 28.1901 14.9193 28.2266 15.5391C28.2266 16.1589 28.0443 16.724 27.6797 17.2344L26.0938 19.3125C25.9479 19.6042 25.9844 19.8229 26.2031 19.9688C26.4219 20.151 26.6406 20.1328 26.8594 19.9141L30.25 15.9219L30.1953 6.67969C30.2318 5.95052 30.487 5.3125 30.9609 4.76562C31.4714 4.25521 32.0911 3.98177 32.8203 3.94531C33.5495 3.94531 34.1693 4.20052 34.6797 4.71094C35.1901 5.22135 35.4453 5.84115 35.4453 6.57031ZM21.9375 10.2891C21.6094 11.7109 20.5885 12.513 18.875 12.6953V13.625C18.8385 14.1719 18.5469 14.4635 18 14.5C17.4531 14.4635 17.1615 14.1719 17.125 13.625V12.6406C16.4688 12.4948 15.849 12.3125 15.2656 12.0938L14.9922 11.9844C14.4818 11.7656 14.2995 11.3828 14.4453 10.8359C14.6641 10.362 15.0286 10.1979 15.5391 10.3438L15.8125 10.4531C15.9219 10.4896 16.0312 10.5078 16.1406 10.5078C16.651 10.7266 17.125 10.8724 17.5625 10.9453C18.1823 11.0547 18.7474 11.0365 19.2578 10.8906C19.7682 10.7448 20.0781 10.4531 20.1875 10.0156C20.2969 9.61458 20.1875 9.30469 19.8594 9.08594C19.5677 8.86719 18.9297 8.61198 17.9453 8.32031L17.5625 8.21094C16.9062 8.0651 16.1771 7.75521 15.375 7.28125C14.6094 6.77083 14.2995 5.91406 14.4453 4.71094C14.737 3.39844 15.6302 2.61458 17.125 2.35938V1.375C17.1979 0.828125 17.5078 0.536458 18.0547 0.5C18.5286 0.536458 18.8021 0.828125 18.875 1.375V2.30469C18.9115 2.30469 18.9479 2.30469 18.9844 2.30469C19.0208 2.30469 19.0391 2.32292 19.0391 2.35938C19.4766 2.39583 20.0234 2.52344 20.6797 2.74219C21.1536 2.96094 21.3359 3.34375 21.2266 3.89062C20.9714 4.36458 20.5885 4.54688 20.0781 4.4375C19.5677 4.25521 19.1484 4.1276 18.8203 4.05469C18.1641 3.94531 17.5807 3.96354 17.0703 4.10938C16.5599 4.25521 16.2682 4.54688 16.1953 4.98438C16.0859 5.3125 16.1406 5.58594 16.3594 5.80469C16.5781 6.02344 17.1432 6.27865 18.0547 6.57031L18.4375 6.67969C19.276 6.86198 20.1146 7.20833 20.9531 7.71875C21.7552 8.22917 22.0833 9.08594 21.9375 10.2891Z" fill="#1294A8"/>
</svg>
