<svg width="32" height="29" viewBox="0 0 32 29" fill="none" xmlns="http://www.w3.org/2000/svg">
<path d="M30.7656 18.7656C31.4219 19.349 31.7135 20.0964 31.6406 21.0078C31.6406 21.8828 31.2943 22.612 30.6016 23.1953L25.0781 27.625C24.349 28.2083 23.5104 28.5 22.5625 28.5H1.07031C0.596354 28.4271 0.322917 28.1172 0.25 27.5703C0.286458 27.0599 0.578125 26.7682 1.125 26.6953H22.5625C23.1094 26.6953 23.5833 26.5312 23.9844 26.2031L29.5078 21.7734C29.7995 21.5547 29.9453 21.263 29.9453 20.8984C29.9453 20.5703 29.8177 20.2786 29.5625 20.0234C29.3438 19.8047 29.0885 19.6953 28.7969 19.6953C28.5052 19.6953 28.25 19.8047 28.0312 20.0234L24.6406 22.7031C24.2031 23.0312 23.7109 23.1953 23.1641 23.1953H13.3203C12.8099 23.1589 12.5182 22.8672 12.4453 22.3203C12.5182 21.7734 12.8099 21.4818 13.3203 21.4453H18.1328C18.9349 21.3724 19.3724 20.9349 19.4453 20.1328C19.3724 19.3307 18.9349 18.8932 18.1328 18.8203H10.0938C9.32812 18.8203 8.63542 19.0573 8.01562 19.5312L5.44531 21.4453H1.07031C0.596354 21.4089 0.322917 21.1354 0.25 20.625C0.286458 20.0781 0.578125 19.7865 1.125 19.75H4.89844L7.03125 18.1641C7.97917 17.4714 9.01823 17.125 10.1484 17.125H18.0781C18.8438 17.125 19.5365 17.362 20.1562 17.8359C20.7396 18.3099 21.0859 18.9479 21.1953 19.75C21.3047 20.3698 21.2318 20.9531 20.9766 21.5H23.2188C23.3646 21.5 23.4922 21.4635 23.6016 21.3906L26.9375 18.6562C27.5208 18.2188 28.1589 18 28.8516 18C29.5807 18 30.2188 18.2552 30.7656 18.7656ZM15.2891 10.9453C15.9818 11.0547 16.6016 11.0365 17.1484 10.8906C17.7318 10.7448 18.0781 10.4531 18.1875 10.0156C18.2604 9.61458 18.1328 9.30469 17.8047 9.08594C17.4766 8.86719 16.8021 8.61198 15.7812 8.32031L15.3438 8.21094C14.651 8.10156 13.9036 7.79167 13.1016 7.28125C12.2995 6.77083 11.9531 5.91406 12.0625 4.71094C12.4271 3.32552 13.4297 2.52344 15.0703 2.30469V1.375C15.1432 0.828125 15.4531 0.536458 16 0.5C16.5469 0.536458 16.8385 0.828125 16.875 1.375V2.30469C17.349 2.3776 17.9141 2.52344 18.5703 2.74219C19.0807 2.96094 19.263 3.32552 19.1172 3.83594C18.8984 4.34635 18.5339 4.54688 18.0234 4.4375C17.4766 4.25521 17.0208 4.1276 16.6562 4.05469C16 3.94531 15.3984 3.96354 14.8516 4.10938C14.2682 4.25521 13.9401 4.54688 13.8672 4.98438C13.7578 5.3125 13.8307 5.58594 14.0859 5.80469C14.3411 6.02344 14.9245 6.27865 15.8359 6.57031L16.2188 6.67969C17.1302 6.86198 18.0052 7.20833 18.8438 7.71875C19.6823 8.22917 20.0286 9.08594 19.8828 10.2891C19.5547 11.6745 18.5521 12.4766 16.875 12.6953V13.625C16.8385 14.1719 16.5469 14.4635 16 14.5C15.4531 14.4635 15.1615 14.1719 15.125 13.625V12.6406C14.9062 12.6406 14.6328 12.5859 14.3047 12.4766C13.9766 12.4036 13.4297 12.2396 12.6641 11.9844C12.1536 11.7656 11.9714 11.401 12.1172 10.8906C12.3359 10.3802 12.7005 10.1979 13.2109 10.3438C13.9036 10.5625 14.3776 10.7083 14.6328 10.7812C14.9245 10.8542 15.1432 10.9089 15.2891 10.9453Z" fill="#0D82E1"/>
</svg>
