<svg width="120" height="110" viewBox="0 0 120 110" fill="none" xmlns="http://www.w3.org/2000/svg">
<g clip-path="url(#clip0_529_4582)">
<path d="M93.1888 102.039C93.6228 102.039 94.0569 102.039 94.4909 102.039C102.371 102.039 110.217 102.039 118.097 102.039C118.431 102.039 118.765 102.039 119.099 102.039C119.599 102.072 120 102.273 120 102.84C119.967 103.374 119.599 103.508 119.132 103.508C118.832 103.508 118.564 103.508 118.264 103.508C79.4325 103.508 40.5677 103.508 1.73634 103.508C1.13534 103.508 0.100284 103.909 0.0668945 102.807C0.0668945 101.738 1.06856 102.039 1.70295 102.039C4.27391 102.005 4.27391 102.005 4.27391 99.4345C4.27391 66.9137 4.27391 34.3928 4.27391 1.87192C4.27391 0.00213895 4.27391 0.00213898 6.1103 0.00213898C24.6746 0.00213898 43.2388 0.00213898 61.8365 -0.03125C62.7714 -0.03125 63.4392 0.235862 64.1404 0.93703C69.2155 6.04554 74.2906 11.1541 79.4325 16.2292C80.0669 16.8636 80.3674 17.498 80.3674 18.3995C80.334 24.1758 80.3674 29.9854 80.334 35.7617C80.334 36.8302 80.6011 37.0305 81.6362 37.0305C97.8966 36.6632 111.653 47.5147 115.125 63.3744C118.564 79.0673 109.85 95.3277 94.8582 101.204C94.324 101.404 93.8232 101.605 93.2889 101.805C93.1888 101.905 93.1888 101.972 93.1888 102.039ZM90.9851 100.77C91.2522 100.77 91.5527 100.837 91.7197 100.536C92.0869 100.47 92.4542 100.436 92.8215 100.336C104.541 96.4629 113.489 84.9103 114.157 72.6232C114.725 62.2726 111.219 53.5247 103.539 46.5464C99.9333 43.2409 95.7597 40.9036 90.9517 39.7016C89.0485 39.0005 87.0786 38.7 85.1086 38.5664C74.7247 37.8986 65.8432 41.2375 58.8315 48.9838C51.5861 56.9971 48.9818 66.5464 51.4192 76.9971C54.6245 90.6866 63.5727 98.9003 77.3624 101.605C81.6362 102.44 85.9767 102.239 90.1838 101.004C90.5177 101.004 90.8181 101.071 90.9851 100.77ZM63.9734 3.07393C63.9066 2.90698 63.8065 2.74004 63.5727 2.77342C63.5394 2.77342 63.5394 2.97376 63.5394 3.07393C63.5394 3.7417 63.5727 4.3761 63.5727 5.04388C63.5394 8.68327 63.5394 12.3227 63.506 15.9955C63.506 16.5965 63.7397 16.7968 64.3073 16.7634C67.9467 16.73 71.5861 16.6966 75.2255 16.6632C75.9267 16.6632 76.6612 16.6632 77.329 16.6632C72.8883 12.1223 68.4141 7.58144 63.9734 3.07393ZM8.28058 102.005C8.51431 102.005 8.78142 102.039 9.01514 102.039C29.6161 102.039 50.2171 102.039 70.8515 102.039C71.0853 102.039 71.3524 101.972 71.9534 101.905C67.1454 100.169 63.1387 97.8319 59.733 94.5597C59.0986 93.9253 58.4642 93.6582 57.5293 93.6916C48.6479 93.725 39.7998 93.725 30.9183 93.725C29.4492 93.725 29.2823 93.5915 29.2823 92.0556C29.2823 90.0188 29.2823 87.9821 29.2823 85.9454C29.2823 84.2092 29.3824 84.0756 31.0853 84.0756C37.6629 84.0756 44.2405 84.0756 50.8181 84.0756C51.753 84.0756 52.1203 83.9754 51.6195 82.9404C50.9517 81.5714 50.4509 80.1023 50.1504 78.5664C49.95 77.498 49.516 77.0973 48.3474 77.1307C42.5711 77.1975 36.7614 77.1641 30.9851 77.1641C29.3824 77.1641 29.2489 77.0305 29.2489 75.4612C29.2489 73.3911 29.2489 71.2876 29.2489 69.2175C29.2489 67.6482 29.3824 67.5147 30.9517 67.5147C36.6612 67.5147 42.3707 67.4813 48.0469 67.548C48.8816 67.548 49.1821 67.3477 49.2489 66.4796C49.3824 64.9103 49.6495 63.341 50.117 61.8385C50.4509 60.8369 50.3173 60.503 49.1487 60.5364C42.9717 60.6031 36.8282 60.5364 30.6512 60.5698C29.5828 60.5698 29.1487 60.2359 29.1821 59.134C29.2489 56.9637 29.1821 54.7935 29.2155 52.6566C29.2155 51.1541 29.349 51.0205 30.8515 51.0205C37.7964 51.0205 44.7747 50.9203 51.7197 51.0873C54.1237 51.1541 55.9934 50.72 57.1621 48.4829C57.2622 48.2826 57.4959 48.1157 57.6629 47.9153C62.6712 42.4061 68.8816 39.0005 76.127 37.498C76.4609 37.4646 76.7948 37.331 77.0953 37.3644C78.4642 37.498 78.6646 36.7634 78.6646 35.5948C78.5978 30.6198 78.6312 25.6449 78.6312 20.6699C78.6312 18.1657 78.6312 18.1657 76.127 18.3327C71.92 18.3327 67.7464 18.2993 63.5394 18.2993C62.0368 18.2993 61.9033 18.1657 61.9033 16.6632C61.9033 12.1223 61.8699 7.61483 61.8699 3.07393C61.9701 1.50464 61.9701 1.50464 60.4008 1.60481C60.0335 1.60481 59.6662 1.57142 59.299 1.57142C42.6712 1.57142 26.0769 1.57142 9.4492 1.57142C9.04853 1.57142 8.61447 1.60481 8.21381 1.60481C5.70963 1.47125 5.70963 1.47125 5.70963 4.00882C5.70963 35.8619 5.70963 67.7484 5.70963 99.6015C5.77641 102.106 5.77641 102.106 8.28058 102.005ZM57.2288 91.9888C55.6262 90.119 54.2572 88.1157 53.0886 85.9788C52.8549 85.5781 52.4876 85.5781 52.1203 85.5781C45.3424 85.5781 38.5644 85.5781 31.753 85.5781C30.9517 85.5781 30.7848 85.912 30.7848 86.6465C30.8181 88.1157 30.8515 89.5514 30.7848 91.0205C30.718 92.0556 31.1187 92.2559 32.0535 92.2559C40.1003 92.2225 48.1136 92.2225 56.1604 92.2225C56.4609 92.2225 56.8282 92.3227 57.2288 91.9888ZM54.2238 52.523C46.5444 52.523 39.0986 52.523 31.6529 52.523C30.9851 52.523 30.7848 52.7233 30.7848 53.3911C30.8181 54.9604 30.8181 56.5631 30.7848 58.1324C30.7848 58.8001 30.9517 59.1006 31.6863 59.0672C37.8966 59.0339 44.107 59.0672 50.2839 59.0672C50.718 59.0672 51.0519 59.0339 51.2522 58.4996C52.0202 56.4963 53.0552 54.5931 54.2238 52.523ZM40.1003 75.695C42.8716 75.695 45.6763 75.6616 48.4475 75.695C49.2155 75.695 49.6495 75.5614 49.4492 74.6599C49.1153 73.0906 49.1487 71.5213 49.1821 69.9521C49.1821 69.3511 49.0485 69.0506 48.3474 69.0506C42.7714 69.0839 37.1954 69.0839 31.6529 69.0506C30.9851 69.0506 30.7848 69.2843 30.8182 69.9187C30.8515 71.4879 30.8849 73.0906 30.8182 74.6599C30.7848 75.528 31.1187 75.695 31.8866 75.695C34.6245 75.6616 37.3624 75.695 40.1003 75.695Z" fill="#000501"/>
<path d="M59.9332 109.052C45.2421 109.052 30.5509 109.052 15.8598 109.019C15.2254 109.019 14.0901 109.453 14.1235 108.284C14.1569 107.215 15.2587 107.549 15.9265 107.549C45.3088 107.549 74.6911 107.549 104.073 107.549C104.775 107.549 105.843 107.215 105.876 108.284C105.91 109.453 104.775 109.019 104.14 109.019C89.3823 109.052 74.6577 109.052 59.9332 109.052Z" fill="#000501"/>
<path d="M5.17529 109.052C3.80634 109.052 2.4374 109.052 1.06845 109.052C0.534224 109.052 0 109.052 0 108.317C0 107.649 0.500835 107.549 1.03506 107.516C3.80634 107.516 6.61102 107.516 9.38231 107.516C9.94992 107.516 10.4174 107.716 10.384 108.35C10.3506 108.918 9.88314 109.052 9.38231 109.052C7.97997 109.052 6.57763 109.052 5.17529 109.052Z" fill="#000501"/>
<path d="M114.825 109.049C113.422 109.049 111.987 109.049 110.584 109.049C110.083 109.049 109.616 108.949 109.583 108.382C109.549 107.747 110.05 107.547 110.584 107.547C113.356 107.547 116.16 107.547 118.932 107.547C119.466 107.547 119.967 107.647 119.967 108.315C119.967 109.016 119.432 109.049 118.898 109.049C117.563 109.049 116.194 109.049 114.825 109.049Z" fill="#000501"/>
<path d="M8.28052 1.57245C8.68119 1.57245 9.11524 1.53906 9.51591 1.53906C26.1436 1.53906 42.7379 1.53906 59.3657 1.53906C59.7329 1.53906 60.1002 1.57245 60.4675 1.57245C60.8682 2.17345 61.369 2.6409 61.9366 3.04157C61.9366 7.58247 61.97 12.09 61.97 16.6309C61.97 18.1334 62.1036 18.2669 63.6061 18.2669C67.8131 18.3003 71.9867 18.3003 76.1937 18.3003C76.1937 24.6776 76.1937 31.0883 76.1937 37.4656C68.9149 39.0015 62.7379 42.4072 57.7296 47.883C57.5627 48.0833 57.3289 48.2169 57.2288 48.4506C56.0601 50.6876 54.1904 51.0883 51.7864 51.0549C44.8415 50.888 37.8965 50.9881 30.9182 50.9881C29.4157 50.9881 29.2822 51.1217 29.2822 52.6242C29.2822 54.7945 29.3156 56.9648 29.2488 59.1017C29.2154 60.2035 29.6495 60.5374 30.7179 60.5374C36.8949 60.504 43.0384 60.5374 49.2154 60.504C50.384 60.504 50.5176 60.8379 50.1837 61.8062C49.6829 63.3087 49.4491 64.878 49.3156 66.4472C49.2488 67.3154 48.9483 67.5157 48.1136 67.5157C42.4041 67.4823 36.6945 67.4823 31.0184 67.4823C29.4491 67.4823 29.3156 67.6159 29.3156 69.1851C29.3156 71.2552 29.3156 73.3588 29.3156 75.4289C29.3156 76.9648 29.4491 77.0983 31.0518 77.1317C36.8281 77.1317 42.6378 77.1651 48.4141 77.0983C49.5827 77.0983 50.0167 77.4656 50.2171 78.534C50.4842 80.0366 51.0184 81.5057 51.6862 82.908C52.187 83.9431 51.8197 84.0432 50.8849 84.0432C44.3072 84.0098 37.7296 84.0432 31.152 84.0432C29.4491 84.0432 29.349 84.1434 29.349 85.913C29.349 87.9497 29.349 89.9865 29.349 92.0232C29.349 93.5257 29.4825 93.6926 30.985 93.6926C39.8665 93.6926 48.7146 93.6926 57.596 93.6593C58.4975 93.6593 59.1319 93.9264 59.7997 94.5274C63.2054 97.7995 67.2121 100.137 72.0201 101.873C71.4191 101.94 71.152 102.007 70.9182 102.007C50.3172 102.007 29.7162 102.007 9.08185 102.007C8.84813 102.007 8.58102 101.973 8.3473 101.973C8.28052 68.5174 8.28052 35.0616 8.28052 1.57245ZM38.0301 26.1801C35.1253 27.282 33.3223 29.2519 33.0885 32.2569C32.8882 34.9948 33.0218 37.7327 33.0218 40.504C33.0218 41.2386 33.3556 41.5725 34.0902 41.5725C39.5326 41.5725 44.975 41.5725 50.4508 41.5725C51.0518 41.5725 51.4525 41.3387 51.4525 40.7377C51.4191 37.7327 51.7196 34.7277 51.3189 31.7561C50.9516 28.9514 49.1152 27.2152 46.5443 26.2135C50.0501 22.1401 50.2505 18.0666 47.1119 15.1618C44.3072 12.5574 39.8331 12.6576 37.1954 15.3621C34.758 17.8329 33.9233 22.474 38.0301 26.1801ZM23.7062 88.918C23.7062 87.716 23.7062 86.514 23.7062 85.312C23.7062 84.4773 23.3389 84.0766 22.5042 84.0766C20.1002 84.0766 17.6962 84.0766 15.2922 84.0766C14.4909 84.0766 14.0568 84.4439 14.0902 85.2786C14.0902 87.6826 14.0902 90.0866 14.0902 92.4906C14.0902 93.3254 14.4575 93.6926 15.2922 93.6926C17.6962 93.6926 20.1002 93.6926 22.5042 93.6926C23.3389 93.6926 23.7396 93.3254 23.7062 92.4906C23.7062 91.322 23.7062 90.12 23.7062 88.918ZM18.8648 77.1985C20.0668 77.1985 21.2688 77.1985 22.4708 77.1985C23.3056 77.1985 23.7062 76.8312 23.7062 75.9965C23.7062 73.5925 23.7062 71.1885 23.7062 68.7845C23.7062 67.9831 23.3723 67.5491 22.5042 67.5491C20.1002 67.5491 17.6962 67.5491 15.2922 67.5491C14.4575 67.5491 14.0568 67.9164 14.0568 68.7511C14.0568 71.1551 14.0568 73.5591 14.0568 75.9631C14.0568 76.898 14.5243 77.1985 15.3924 77.1985C16.5276 77.1651 17.6962 77.1985 18.8648 77.1985ZM18.8982 60.5708C20.0668 60.5708 21.2354 60.5374 22.4041 60.5708C23.3056 60.6042 23.7396 60.2703 23.7062 59.3688C23.7062 56.9982 23.7062 54.6275 23.7062 52.2569C23.7062 51.3554 23.3056 50.9881 22.4041 50.9881C20.0334 51.0215 17.6628 51.0215 15.2922 50.9881C14.4575 50.9881 14.0568 51.322 14.0568 52.1568C14.0568 54.5608 14.0568 56.9648 14.0568 59.4022C14.0568 60.2703 14.4241 60.6042 15.2588 60.5708C16.4942 60.5374 17.6962 60.5708 18.8982 60.5708Z" fill="#CDCDCD"/>
<path d="M90.2171 101.036C86.0101 102.305 81.6695 102.472 77.3957 101.637C63.6061 98.9328 54.6578 90.7525 51.4525 77.0296C49.0151 66.5788 51.6194 57.0296 58.8648 49.0162C65.8431 41.27 74.758 37.9311 85.142 38.5989C87.1119 38.7324 89.1153 39.0329 90.985 39.7341C91.1186 39.8676 91.2521 40.068 91.4191 40.1348C96.7947 42.305 101.235 45.7441 104.841 50.285C108.915 55.4603 111.152 61.3702 111.653 67.881C112.154 74.3585 110.785 80.5354 107.579 86.2116C104.942 90.8526 101.402 94.659 96.8949 97.5972C95.2254 98.699 93.3223 99.3 91.7196 100.535C91.4191 100.502 91.1186 100.469 90.9516 100.803H90.985C90.7179 100.769 90.4174 100.702 90.2171 101.036ZM82.3373 90.1848C85.8431 90.1848 89.3156 90.1848 92.8214 90.1848C94.3573 90.1848 94.5243 89.9845 94.6912 88.5154C94.7914 87.6139 94.9249 86.7124 95.0251 85.8109C95.9934 78.7324 96.9617 71.654 97.9299 64.5755C98.4642 60.7024 98.965 56.8293 99.4992 52.9561C99.5994 52.2216 99.9333 51.8877 100.735 51.9545C101.469 52.0212 102.237 51.9879 102.972 51.9545C103.506 51.9211 104.007 51.7875 103.973 51.1197C103.973 50.5187 103.506 50.4186 103.005 50.3518C102.671 50.3184 102.337 50.3518 102.003 50.3518C97.763 50.3518 93.5226 50.3518 89.2822 50.3518C87.2121 50.3518 87.5126 50.452 87.4792 48.6489C87.4458 46.6122 86.1102 45.3101 84.1069 45.2767C83.1386 45.2433 82.2037 45.2767 81.2355 45.2767C78.5977 45.2767 77.2622 46.5454 77.2956 49.1498C77.2956 50.1848 76.9283 50.3852 75.9934 50.3852C71.5527 50.3518 67.0785 50.3518 62.6378 50.3852C62.2371 50.3852 61.8031 50.4186 61.4024 50.4853C61.0351 50.5521 60.8014 50.8192 60.8014 51.1865C60.8014 51.5538 61.0351 51.8209 61.4024 51.8877C61.7363 51.9545 62.0702 51.9545 62.4041 51.9878C65.1754 52.0212 65.1754 52.0212 65.576 54.8259C67.1453 66.1448 68.7146 77.4636 70.2171 88.7825C70.3507 89.9177 70.7847 90.285 71.8865 90.2516C75.359 90.1848 78.8648 90.1848 82.3373 90.1848Z" fill="#1294A8"/>
<path d="M8.28054 1.56967C8.28054 35.0254 8.28054 68.5146 8.28054 101.97C5.77637 102.071 5.77637 102.071 5.77637 99.5663C5.77637 67.7132 5.77637 35.8268 5.77637 3.97368C5.77637 1.4695 5.77637 1.4695 8.28054 1.56967Z" fill="#CDCDCD"/>
<path d="M57.2288 91.9837C56.8281 92.3176 56.4942 92.1841 56.1603 92.1841C48.1136 92.1841 40.1002 92.1841 32.0535 92.2175C31.1186 92.2175 30.7179 92.0171 30.7847 90.9821C30.8849 89.5463 30.8181 88.0772 30.7847 86.6081C30.7513 85.9069 30.9183 85.5397 31.753 85.5397C38.531 85.573 45.3089 85.5397 52.1203 85.5397C52.4876 85.5397 52.8548 85.5063 53.0886 85.9403C54.2572 88.1106 55.6261 90.1139 57.2288 91.9837Z" fill="white"/>
<path d="M54.2236 52.5234C53.055 54.5602 52.0199 56.4633 51.2854 58.5001C51.085 59.0343 50.7511 59.0677 50.3171 59.0677C44.1067 59.0677 37.8964 59.0677 31.7194 59.0677C30.9849 59.0677 30.7845 58.8006 30.8179 58.1328C30.8513 56.5635 30.8513 54.9608 30.8179 53.3915C30.8179 52.7572 31.0183 52.5234 31.686 52.5234C39.0984 52.5568 46.5441 52.5234 54.2236 52.5234Z" fill="white"/>
<path d="M91.7194 100.536C93.2887 99.3003 95.1919 98.6659 96.8947 97.5975C101.402 94.6592 104.975 90.8529 107.579 86.2118C110.785 80.5357 112.153 74.3587 111.653 67.8813C111.152 61.3704 108.915 55.4606 104.841 50.2853C101.235 45.711 96.7945 42.3053 91.4189 40.135C91.252 40.0683 91.1184 39.8679 90.9849 39.7344C95.7595 40.9364 99.9331 43.2736 103.573 46.5791C111.252 53.5574 114.758 62.3053 114.19 72.6559C113.489 84.9431 104.574 96.4956 92.8546 100.369C92.4874 100.436 92.0867 100.469 91.7194 100.536Z" fill="#1294A8" fill-opacity="0.8"/>
<path d="M40.1003 75.6913C37.3624 75.6913 34.6245 75.6579 31.8866 75.6913C31.0852 75.6913 30.7513 75.5243 30.8181 74.6562C30.8849 73.0869 30.8515 71.4843 30.8181 69.915C30.8181 69.2806 30.9851 69.0469 31.6528 69.0469C37.2288 69.0803 42.8048 69.0803 48.3473 69.0469C49.0485 69.0469 49.1821 69.314 49.1821 69.9484C49.1821 71.5177 49.1487 73.1203 49.4492 74.6562C49.6495 75.5577 49.2155 75.6913 48.4475 75.6913C45.6762 75.6579 42.9049 75.6913 40.1003 75.6913Z" fill="white"/>
<path d="M75.2588 16.6975C71.6194 16.7309 67.98 16.7309 64.3406 16.7977C63.773 16.7977 63.5393 16.6307 63.5393 16.0297C63.5727 12.3903 63.6061 8.75091 63.6061 5.07812C63.9734 5.11151 64.1737 5.37863 64.4074 5.61235C67.8799 9.0848 71.3189 12.5239 74.7914 15.9963C74.9917 16.1967 75.2254 16.3636 75.2588 16.6975Z" fill="#CDCDCD"/>
<path d="M63.9734 3.07124C63.8398 3.07124 63.6729 3.07124 63.5393 3.07124C63.5393 2.97107 63.5393 2.77074 63.5727 2.77074C63.8064 2.73735 63.9066 2.87091 63.9734 3.07124Z" fill="#CDCDCD"/>
<path d="M90.9849 100.765C91.1518 100.431 91.4523 100.498 91.7528 100.498C91.5525 100.832 91.252 100.765 90.9849 100.765Z" fill="#1294A8"/>
<path d="M90.217 101.038C90.384 100.704 90.6845 100.771 90.985 100.771C90.818 101.072 90.5175 101.005 90.217 101.038Z" fill="#1294A8"/>
<path d="M38.0302 26.1762C33.8899 22.4701 34.7581 17.829 37.1621 15.3582C39.7998 12.6537 44.2739 12.5535 47.0786 15.1579C50.2171 18.0627 50.0168 22.1362 46.511 26.2096C49.1153 27.2113 50.9183 28.9475 51.2856 31.7522C51.6863 34.7238 51.3858 37.7288 51.4192 40.7338C51.4192 41.3348 51.0185 41.6019 50.4175 41.5686C44.9751 41.5686 39.5327 41.5686 34.0569 41.5686C33.3223 41.5686 32.9884 41.2347 32.9884 40.5001C32.9884 37.7622 32.8549 34.9909 33.0552 32.253C33.3223 29.248 35.1253 27.2781 38.0302 26.1762ZM42.2706 40.066C44.4742 40.066 46.6779 40.0327 48.8816 40.0994C49.7831 40.1328 50.0168 39.8323 49.9834 38.9642C49.9166 37.061 49.9834 35.1245 49.95 33.2213C49.8833 29.7489 47.6796 27.5452 44.2405 27.5118C42.7046 27.5118 41.1687 27.4784 39.6328 27.5452C37.2288 27.612 35.1587 29.3816 34.758 31.7522C34.2906 34.3231 34.6579 36.8941 34.5577 39.465C34.5243 40.1996 35.0919 40.066 35.526 40.066C37.7631 40.066 40.0001 40.066 42.2706 40.066ZM42.2372 25.8423C45.4425 25.8423 47.7798 23.5385 47.7798 20.3666C47.7798 17.1946 45.4425 14.7906 42.304 14.7906C39.0986 14.7572 36.728 17.1612 36.728 20.3666C36.728 23.5385 39.0652 25.8423 42.2372 25.8423Z" fill="#000501"/>
<path d="M23.7061 88.9174C23.7061 90.1194 23.7061 91.3214 23.7061 92.5234C23.7061 93.3581 23.3388 93.7254 22.5041 93.7254C20.1001 93.7254 17.6961 93.7254 15.2921 93.7254C14.4574 93.7254 14.0901 93.3247 14.0901 92.5234C14.0901 90.1194 14.0901 87.7154 14.0901 85.3114C14.0901 84.4767 14.4908 84.1094 15.2921 84.1094C17.6961 84.1094 20.1001 84.1094 22.5041 84.1094C23.3388 84.1094 23.7061 84.51 23.7061 85.3448C23.6727 86.5134 23.7061 87.7154 23.7061 88.9174ZM22.2036 89.1511C22.2036 88.0827 22.2036 87.2146 22.2036 86.3464C22.2036 85.8456 22.0367 85.5785 21.5024 85.5785C19.7662 85.6119 18.03 85.6119 16.2604 85.5785C15.6928 85.5785 15.5592 85.879 15.5592 86.3464C15.5592 88.0493 15.5926 89.7521 15.5592 91.455C15.5592 92.0893 15.8597 92.2229 16.3939 92.1895C17.2287 92.1561 18.0634 92.2229 18.8981 92.1895C19.9665 92.1227 21.3021 92.657 22.0033 91.9558C22.6377 91.288 22.1034 89.9858 22.2036 89.1511Z" fill="#000501"/>
<path d="M18.8647 77.1963C17.696 77.1963 16.5274 77.1963 15.3922 77.1963C14.5241 77.1963 14.0566 76.8958 14.0566 75.9609C14.09 73.5569 14.0566 71.1529 14.0566 68.7489C14.0566 67.9142 14.4573 67.5469 15.292 67.5469C17.696 67.5469 20.1 67.5469 22.5041 67.5469C23.3388 67.5469 23.7061 67.9475 23.7061 68.7823C23.7061 71.1863 23.7061 73.5903 23.7061 75.9943C23.7061 76.829 23.3054 77.1963 22.4707 77.1963C21.2687 77.1963 20.0667 77.1963 18.8647 77.1963ZM22.2369 72.2547C22.0366 71.2864 22.7044 69.9175 21.9364 69.2497C21.2687 68.6487 19.9331 69.0828 18.9314 69.0828C17.863 69.0828 16.494 68.6153 15.8263 69.2831C15.1251 69.9509 15.5925 71.3198 15.6259 72.3883C15.6259 73.4567 15.1251 74.7923 15.8596 75.4935C16.5274 76.1278 17.8296 75.6604 18.8647 75.6604C19.9331 75.6604 21.3021 76.1278 22.0032 75.4601C22.671 74.7923 22.07 73.3899 22.2369 72.2547Z" fill="#000501"/>
<path d="M18.8981 60.567C17.6961 60.567 16.4941 60.5336 15.2921 60.567C14.4573 60.6004 14.0567 60.2665 14.0901 59.3984C14.1235 56.9944 14.0901 54.5904 14.0901 52.153C14.0901 51.3183 14.4907 50.9844 15.3255 50.9844C17.6961 51.0178 20.0667 51.0178 22.4373 50.9844C23.3388 50.9844 23.7395 51.3517 23.7395 52.2532C23.7395 54.6238 23.7395 56.9944 23.7395 59.365C23.7395 60.2665 23.3054 60.6004 22.4373 60.567C21.2353 60.5336 20.0667 60.567 18.8981 60.567ZM15.5592 55.6922C15.5592 56.2598 15.5592 56.8608 15.5592 57.4285C15.5592 59.0645 15.5592 59.0645 17.1285 59.0645C17.8296 59.0645 18.5308 59.0645 19.232 59.0645C22.1702 59.0645 22.2036 59.0645 22.1702 56.0595C22.1702 54.9243 22.671 53.4218 21.9365 52.7206C21.2687 52.0528 19.7996 52.5537 18.6977 52.5203C15.5592 52.5203 15.5592 52.5203 15.5592 55.6922Z" fill="#000501"/>
<path d="M82.3374 90.1851C78.8315 90.1851 75.3591 90.1517 71.8532 90.1851C70.7848 90.1851 70.3507 89.8178 70.1838 88.716C68.6813 77.3971 67.112 66.0783 65.5427 54.7594C65.142 51.9547 65.142 51.9547 62.3707 51.9213C62.0368 51.9213 61.703 51.9213 61.3691 51.8212C61.0352 51.721 60.7681 51.4873 60.7681 51.12C60.7681 50.7527 61.0018 50.4856 61.3691 50.4188C61.7697 50.3521 62.2038 50.3187 62.6045 50.3187C67.0452 50.3187 71.5193 50.2853 75.9601 50.3187C76.8949 50.3187 77.2622 50.1183 77.2622 49.0833C77.2288 46.4789 78.5978 45.2435 81.2021 45.2102C82.1704 45.2102 83.1053 45.1768 84.0736 45.2102C86.1103 45.2435 87.4125 46.5457 87.4459 48.5824C87.4793 50.3854 87.1787 50.2853 89.2489 50.2853C93.4893 50.2853 97.7297 50.2853 101.97 50.2853C102.304 50.2853 102.638 50.2853 102.972 50.2853C103.439 50.3187 103.907 50.4522 103.94 51.0532C103.94 51.721 103.439 51.8546 102.938 51.8879C102.204 51.9213 101.436 51.9547 100.701 51.8879C99.9 51.8212 99.5661 52.1551 99.4659 52.8896C98.9651 56.7627 98.4308 60.6359 97.8966 64.509C96.9283 71.5874 95.9601 78.6659 94.9918 85.7444C94.8582 86.6459 94.7247 87.5474 94.6579 88.4489C94.4909 89.918 94.324 90.1183 92.7881 90.1183C89.349 90.1851 85.8432 90.1851 82.3374 90.1851ZM82.4709 51.9547C77.5961 51.9547 72.7213 51.9547 67.8465 51.9547C67.0118 51.9547 66.7113 52.0215 66.8449 53.0566C67.7798 59.4672 68.6145 65.9113 69.4826 72.322C70.1504 77.3637 70.8515 82.3721 71.5193 87.4138C71.6195 88.2819 71.8866 88.6826 72.9217 88.6492C79.299 88.5824 85.6763 88.6158 92.0202 88.6492C92.8215 88.6492 93.1554 88.4823 93.2889 87.6142C93.9233 82.539 94.6579 77.4973 95.3591 72.4222C96.2272 66.0783 97.0619 59.7344 97.9968 53.3905C98.1637 52.2886 97.8966 51.9547 96.728 51.9881C91.9868 51.9881 87.2121 51.9547 82.4709 51.9547ZM82.4709 50.4522C83.339 50.4522 84.2071 50.4522 85.0752 50.4522C85.3424 50.4522 85.6763 50.519 85.8766 50.2519C86.5778 49.3504 85.743 46.9798 84.5744 46.8462C83.1387 46.7127 81.6696 46.7127 80.2338 46.8462C79.132 46.9464 78.6312 48.115 78.7647 49.6175C78.8649 50.9197 79.8666 50.3187 80.4676 50.3854C81.1353 50.519 81.8031 50.4522 82.4709 50.4522Z" fill="#000501"/>
<path d="M42.2705 40.0699C40.0334 40.0699 37.763 40.0699 35.5259 40.0699C35.0919 40.0699 34.5243 40.2034 34.5576 39.4689C34.6244 36.8979 34.2905 34.2936 34.758 31.756C35.192 29.352 37.2288 27.6158 39.6328 27.549C41.1687 27.5156 42.7046 27.5156 44.2405 27.5156C47.7129 27.549 49.9166 29.7527 49.95 33.2251C49.9834 35.1283 49.9166 37.0649 49.9834 38.968C50.0167 39.8362 49.7496 40.1367 48.8815 40.1033C46.6778 40.0365 44.4742 40.0699 42.2705 40.0699Z" fill="white"/>
<path d="M42.237 25.8408C39.065 25.8408 36.7278 23.537 36.7278 20.365C36.7278 17.1597 39.1318 14.7891 42.3371 14.7891C45.4423 14.8225 47.8129 17.2265 47.8129 20.365C47.7795 23.537 45.4423 25.8408 42.237 25.8408Z" fill="white"/>
<path d="M22.2036 89.1455C22.1034 89.9802 22.6376 91.2824 22.0033 91.9501C21.3021 92.6513 19.9665 92.1505 18.8981 92.1839C18.0634 92.2172 17.2286 92.1839 16.3939 92.1839C15.8597 92.2172 15.5258 92.0837 15.5592 91.4493C15.5926 89.7465 15.5926 88.0436 15.5592 86.3408C15.5592 85.84 15.6927 85.5394 16.2603 85.5728C17.9966 85.5728 19.7328 85.5728 21.5024 85.5728C22.0366 85.5728 22.237 85.8066 22.2036 86.3408C22.1702 87.2089 22.2036 88.077 22.2036 89.1455Z" fill="white"/>
<path d="M22.2371 72.2529C22.0702 73.3881 22.6712 74.7571 21.97 75.4582C21.2689 76.126 19.8999 75.6586 18.8315 75.6586C17.7964 75.6586 16.4942 76.0926 15.8264 75.4916C15.0919 74.7905 15.5927 73.4549 15.5927 72.3864C15.5927 71.318 15.1253 69.9491 15.7931 69.2813C16.4608 68.6135 17.8632 69.0809 18.8982 69.0809C19.9333 69.0809 21.2355 68.6469 21.9032 69.2479C22.7046 69.9157 22.0034 71.2846 22.2371 72.2529Z" fill="white"/>
<path d="M15.5593 55.6904C15.5593 52.5184 15.5593 52.5184 18.6979 52.5184C19.7997 52.5184 21.2688 52.051 21.9366 52.7188C22.6712 53.4533 22.1703 54.9224 22.1703 56.0577C22.2037 59.0627 22.1703 59.0627 19.2321 59.0627C18.5309 59.0627 17.8298 59.0627 17.1286 59.0627C15.5593 59.0627 15.5593 59.0627 15.5593 57.4266C15.5593 56.859 15.5593 56.258 15.5593 55.6904Z" fill="white"/>
<path d="M82.4709 51.9496C87.2121 51.9496 91.9534 51.983 96.6946 51.9162C97.8632 51.9162 98.0969 52.2167 97.9634 53.3185C97.0619 59.6624 96.2272 66.0064 95.3257 72.3503C94.6245 77.4254 93.8899 82.4671 93.2555 87.5423C93.1554 88.4438 92.7881 88.6107 91.9868 88.5773C85.6095 88.5439 79.2322 88.5439 72.8883 88.5773C71.8866 88.5773 71.6195 88.1766 71.4859 87.3419C70.8181 82.3002 70.117 77.2918 69.4492 72.2501C68.5811 65.8394 67.7464 59.3953 66.8115 52.9847C66.6779 51.9496 66.9784 51.8828 67.8131 51.8828C72.7213 51.9496 77.5961 51.9496 82.4709 51.9496ZM90.6512 70.2468C90.6512 66.9746 90.6512 63.6691 90.6512 60.397C90.6512 60.0631 90.6846 59.7292 90.6178 59.3953C90.551 58.9279 90.2839 58.594 89.7831 58.6274C89.349 58.6274 89.1153 58.9613 89.0485 59.3619C88.9818 59.6291 89.0151 59.9296 89.0151 60.2301C89.0151 66.9412 89.0151 73.619 89.0151 80.3302C89.0151 80.6307 89.0151 80.9312 89.0485 81.1983C89.1153 81.599 89.3824 81.8995 89.7831 81.9329C90.2171 81.9329 90.4843 81.6658 90.551 81.2651C90.6178 80.9312 90.6178 80.5973 90.6178 80.2634C90.6512 76.9246 90.6512 73.5857 90.6512 70.2468ZM75.7597 70.2468C75.7597 68.0097 75.7597 65.7392 75.7597 63.5022C75.7597 62.1666 75.7597 60.8311 75.7597 59.4955C75.7597 58.9947 75.526 58.6608 75.0585 58.6608C74.5577 58.6274 74.324 58.9947 74.2906 59.4621C74.2572 59.6624 74.2906 59.8628 74.2906 60.0965C74.2906 66.8745 74.2906 73.6858 74.2906 80.4638C74.2906 81.0982 74.1904 81.8661 75.0919 81.8661C75.9267 81.8661 75.7931 81.0982 75.7931 80.5306C75.7597 77.0915 75.7597 73.6858 75.7597 70.2468ZM81.703 70.2468C81.703 73.6524 81.703 77.0581 81.703 80.4638C81.703 81.0648 81.5694 81.8661 82.5043 81.8327C83.3056 81.7993 83.2055 81.0648 83.2055 80.4638C83.2055 73.6524 83.2055 66.8411 83.2055 59.9963C83.2055 59.4287 83.3056 58.6942 82.4709 58.6942C81.6028 58.6608 81.703 59.3953 81.703 59.963C81.703 63.402 81.703 66.8411 81.703 70.2468Z" fill="white"/>
<path d="M82.4707 50.4513C81.8029 50.4513 81.1352 50.5181 80.4674 50.4179C79.833 50.3177 78.8647 50.9521 78.7645 49.6499C78.631 48.1141 79.1318 46.9788 80.2337 46.8787C81.6694 46.7451 83.1385 46.7117 84.5742 46.8787C85.7428 46.9788 86.611 49.3828 85.8764 50.2843C85.6761 50.5515 85.3422 50.4847 85.0751 50.4847C84.2069 50.4513 83.3388 50.4513 82.4707 50.4513Z" fill="#1294A8"/>
<path d="M90.6511 70.2486C90.6511 73.5875 90.6511 76.893 90.6511 80.2319C90.6511 80.5658 90.6511 80.8997 90.5843 81.2336C90.5175 81.6343 90.217 81.9348 89.8163 81.9014C89.3823 81.9014 89.1485 81.6009 89.0818 81.1668C89.015 80.8997 89.0484 80.5992 89.0484 80.2987C89.0484 73.5875 89.0484 66.9097 89.0484 60.1985C89.0484 59.898 89.0484 59.5975 89.0818 59.3304C89.1485 58.9298 89.3823 58.6293 89.8163 58.5959C90.3172 58.5625 90.5843 58.9298 90.6511 59.3638C90.6844 59.6977 90.6844 60.0316 90.6844 60.3655C90.6511 63.671 90.6511 66.9765 90.6511 70.2486Z" fill="#000501"/>
<path d="M75.7597 70.2543C75.7597 73.66 75.7597 77.099 75.7597 80.5047C75.7597 81.0723 75.8933 81.8403 75.0586 81.8403C74.1571 81.8403 74.2572 81.0723 74.2572 80.4379C74.2572 73.66 74.2572 66.8486 74.2572 60.0706C74.2572 59.8703 74.2572 59.6366 74.2572 59.4363C74.2906 58.9688 74.5243 58.6015 75.0252 58.6349C75.526 58.6683 75.7263 59.0022 75.7263 59.4696C75.7263 60.8052 75.7263 62.1408 75.7263 63.4763C75.7597 65.7802 75.7597 68.0172 75.7597 70.2543Z" fill="#000501"/>
<path d="M81.7028 70.2525C81.7028 66.8469 81.7028 63.4412 81.7028 60.0355C81.7028 59.4679 81.5692 58.7333 82.4707 58.7667C83.3055 58.8001 83.2053 59.5013 83.2053 60.0689C83.2053 66.8802 83.2053 73.6916 83.2053 80.5363C83.2053 81.104 83.2721 81.8719 82.5041 81.9053C81.5692 81.9387 81.7028 81.1373 81.7028 80.5363C81.7028 77.0639 81.7028 73.6582 81.7028 70.2525Z" fill="#000501"/>
</g>
<defs>
<clipPath id="clip0_529_4582">
<rect width="120" height="109.115" fill="white"/>
</clipPath>
</defs>
</svg>
