<svg width="29" height="29" viewBox="0 0 29 29" fill="none" xmlns="http://www.w3.org/2000/svg">
<path d="M27.8906 12.6406C27.9635 13.2604 28 13.8802 28 14.5C27.9635 17.0885 27.3255 19.4401 26.0859 21.5547C24.8464 23.6693 23.1693 25.3464 21.0547 26.5859C18.9401 27.8255 16.5885 28.4635 14 28.5C11.4115 28.4635 9.0599 27.8255 6.94531 26.5859C4.83073 25.3464 3.15365 23.6693 1.91406 21.5547C0.674479 19.4401 0.0364583 17.0885 0 14.5C0.0364583 11.9115 0.674479 9.5599 1.91406 7.44531C3.15365 5.33073 4.83073 3.65365 6.94531 2.41406C9.0599 1.17448 11.4115 0.536458 14 0.5C14.6198 0.5 15.2396 0.536458 15.8594 0.609375C16.3698 0.755208 16.625 1.08333 16.625 1.59375C16.4792 2.14062 16.151 2.39583 15.6406 2.35938C15.0938 2.28646 14.5469 2.25 14 2.25C11.7396 2.28646 9.67969 2.85156 7.82031 3.94531C5.9974 5.03906 4.53906 6.4974 3.44531 8.32031C2.35156 10.1797 1.78646 12.2396 1.75 14.5C1.78646 16.7604 2.35156 18.8203 3.44531 20.6797C4.53906 22.5026 5.9974 23.9609 7.82031 25.0547C9.67969 26.1484 11.7396 26.7135 14 26.75C16.2604 26.7135 18.3203 26.1484 20.1797 25.0547C22.0026 23.9609 23.4609 22.5026 24.5547 20.6797C25.6484 18.8203 26.2135 16.7604 26.25 14.5C26.25 13.9167 26.2135 13.3698 26.1406 12.8594C26.1042 12.3125 26.3594 11.9844 26.9062 11.875C27.4167 11.8385 27.7448 12.0938 27.8906 12.6406ZM14 7.5C12.0312 7.53646 10.3906 8.22917 9.07812 9.57812C7.72917 10.8906 7.03646 12.5312 7 14.5C7.03646 16.4688 7.72917 18.1094 9.07812 19.4219C10.3906 20.7708 12.0312 21.4635 14 21.5C15.9688 21.4635 17.6094 20.7708 18.9219 19.4219C20.2708 18.1094 20.9635 16.4688 21 14.5C21.0365 13.9531 21.3281 13.6615 21.875 13.625C22.4219 13.6615 22.7135 13.9531 22.75 14.5C22.6771 16.9792 21.8203 19.0391 20.1797 20.6797C18.5391 22.3203 16.4792 23.1771 14 23.25C11.5208 23.1771 9.46094 22.3203 7.82031 20.6797C6.17969 19.0391 5.32292 16.9792 5.25 14.5C5.32292 12.0208 6.17969 9.96094 7.82031 8.32031C9.46094 6.67969 11.5208 5.82292 14 5.75C14.5469 5.78646 14.8385 6.07812 14.875 6.625C14.8385 7.17188 14.5469 7.46354 14 7.5ZM13.3984 13.8984L18.3203 8.97656L17.5 5.03906C17.4635 4.7474 17.5547 4.49219 17.7734 4.27344L21.2734 0.773438C21.5286 0.518229 21.8203 0.445312 22.1484 0.554688C22.4766 0.664062 22.6771 0.882812 22.75 1.21094L23.5156 4.98438L27.2891 5.75C27.6172 5.82292 27.8359 6.02344 27.9453 6.35156C28.0547 6.67969 27.9818 6.97135 27.7266 7.22656L24.2266 10.7266C24.0807 10.9089 23.8802 11 23.625 11C23.5521 11 23.4974 11 23.4609 11L19.5234 10.1797L14.6016 15.1016C14.2005 15.4661 13.7995 15.4661 13.3984 15.1016C13.0339 14.7005 13.0339 14.2995 13.3984 13.8984ZM23.0234 6.67969L21.0547 8.70312L23.3516 9.19531L25.375 7.17188L23.0234 6.67969ZM21.3281 3.125L19.3047 5.14844L19.7969 7.5L21.8203 5.47656L21.3281 3.125Z" fill="#9152A0"/>
</svg>
